<?xml version="1.0" encoding="UTF-8"?>
<svg xmlns="http://www.w3.org/2000/svg" width="324" height="45" viewBox="0 0 324 45" fill="none">
  <path fill-rule="evenodd" clip-rule="evenodd" d="M15.4187 8.04028C15.3883 8.04028 15.3579 8.04028 15.3274 8.04028C11.2425 8.04028 7.31221 8.98802 3.50351 10.9C1.95774 14.5718 1.08602 18.3045 1.04041 22.1132C0.979589 25.8915 1.75881 29.761 3.48704 33.7078C7.46425 35.436 11.4415 36.3229 15.4187 36.3698C19.3959 36.3229 23.3731 35.436 27.349 33.7078C29.0785 29.761 29.8577 25.8915 29.7969 22.1132C29.7513 18.3045 28.8796 14.5718 27.3338 10.9C23.5251 8.98802 19.5948 8.04028 15.5099 8.04028C15.4795 8.04028 15.4491 8.04028 15.4187 8.04028Z" fill="#FEFEFE"></path>
  <path d="M3.50334 10.8999L3.27902 10.4531L3.11411 10.5358L3.04251 10.7059L3.50334 10.8999ZM3.50334 10.8999C7.31203 8.98797 11.2424 8.04023 15.3273 8.04023H15.4185H15.5097C19.5946 8.04023 23.525 8.98797 27.3336 10.8999M3.50334 10.8999C1.95756 14.5718 1.08584 18.3044 1.04023 22.1131C0.979414 25.8914 1.75864 29.7609 3.48687 33.7077M27.3336 10.8999C28.8794 14.5718 29.7511 18.3044 29.7968 22.1131C29.8576 25.8914 29.0783 29.7609 27.3489 33.7077M27.3336 10.8999L27.558 10.4531L27.7229 10.5358L27.7945 10.7059L27.3336 10.8999ZM3.48687 33.7077L3.02885 33.9083L3.10758 34.0881L3.2876 34.1663L3.48687 33.7077ZM3.48687 33.7077C7.46408 35.436 11.4413 36.3229 15.4185 36.3698M15.4185 36.3698L15.4126 36.8699L15.4244 36.8697L15.4185 36.3698ZM15.4185 36.3698C19.3957 36.3229 23.3729 35.436 27.3489 33.7077M27.3489 33.7077L27.5482 34.1663L27.7281 34.0881L27.8068 33.9084L27.3489 33.7077ZM15.3273 7.5C11.1099 7.5 7.02803 8.48987 3.08866 10.505L2.86095 10.0599L2.61515 10.3196C0.979414 14.1739 0.0456131 18.1055 0 22.0979L15.3273 7.5ZM15.3273 7.5H15.3274H15.3276H15.3278H15.328H15.3282H15.3283H15.3285H15.3287H15.3289H15.329H15.3292H15.3294H15.3296H15.3298H15.3299H15.3301H15.3303H15.3305H15.3307H15.3308H15.331H15.3312H15.3314H15.3315H15.3317H15.3319H15.3321H15.3323H15.3324H15.3326H15.3328H15.333H15.3331H15.3333H15.3335H15.3337H15.3339H15.334H15.3342H15.3344H15.3346H15.3347H15.3349H15.3351H15.3353H15.3355H15.3356H15.3358H15.336H15.3362H15.3364H15.3365H15.3367H15.3369H15.3371H15.3372H15.3374H15.3376H15.3378H15.338H15.3381H15.3383H15.3385H15.3387H15.3388H15.339H15.3392H15.3394H15.3396H15.3397H15.3399H15.3401H15.3403H15.3405H15.3406H15.3408H15.341H15.3412H15.3413H15.3415H15.3417H15.3419H15.3421H15.3422H15.3424H15.3426H15.3428H15.3429H15.3431H15.3433H15.3435H15.3437H15.3438H15.344H15.3442H15.3444H15.3445H15.3447H15.3449H15.3451H15.3453H15.3454H15.3456H15.3458H15.346H15.3462H15.3463H15.3465H15.3467H15.3469H15.347H15.3472H15.3474H15.3476H15.3478H15.3479H15.3481H15.3483H15.3485H15.3486H15.3488H15.349H15.3492H15.3494H15.3495H15.3497H15.3499H15.3501H15.3503H15.3504H15.3506H15.3508H15.351H15.3511H15.3513H15.3515H15.3517H15.3519H15.352H15.3522H15.3524H15.3526H15.3527H15.3529H15.3531H15.3533H15.3535H15.3536H15.3538H15.354H15.3542H15.3543H15.3545H15.3547H15.3549H15.3551H15.3552H15.3554H15.3556H15.3558H15.356H15.3561H15.3563H15.3565H15.3567H15.3568H15.357H15.3572H15.3574H15.3576H15.3577H15.3579H15.3581H15.3583H15.3584H15.3586H15.3588H15.359H15.3592H15.3593H15.3595H15.3597H15.3599H15.3601H15.3602H15.3604H15.3606H15.3608H15.3609H15.3611H15.3613H15.3615H15.3617H15.3618H15.362H15.3622H15.3624H15.3625H15.3627H15.3629H15.3631H15.3633H15.3634H15.3636H15.3638H15.364H15.3641H15.3643H15.3645H15.3647H15.3649H15.365H15.3652H15.3654H15.3656H15.3658H15.3659H15.3661H15.3663H15.3665H15.3666H15.3668H15.367H15.3672H15.3674H15.3675H15.3677H15.3679H15.3681H15.3682H15.3684H15.3686H15.3688H15.369H15.3691H15.3693H15.3695H15.3697H15.3699H15.37H15.3702H15.3704H15.3706H15.3707H15.3709H15.3711H15.3713H15.3715H15.3716H15.3718H15.372H15.3722H15.3723H15.3725H15.3727H15.3729H15.3731H15.3732H15.3734H15.3736H15.3738H15.3739H15.3741H15.3743H15.3745H15.3747H15.3748H15.375H15.3752H15.3754H15.3756H15.3757H15.3759H15.3761H15.3763H15.3764H15.3766H15.3768H15.377H15.3772H15.3773H15.3775H15.3777H15.3779H15.378H15.3782H15.3784H15.3786H15.3788H15.3789H15.3791H15.3793H15.3795H15.3797H15.3798H15.38H15.3802H15.3804H15.3805H15.3807H15.3809H15.3811H15.3813H15.3814H15.3816H15.3818H15.382H15.3821H15.3823H15.3825H15.3827H15.3829H15.383H15.3832H15.3834H15.3836H15.3837H15.3839H15.3841H15.3843H15.3845H15.3846H15.3848H15.385H15.3852H15.3854H15.3855H15.3857H15.3859H15.3861H15.3862H15.3864H15.3866H15.3868H15.387H15.3871H15.3873H15.3875H15.3877H15.3878H15.388H15.3882H15.3884H15.3886H15.3887H15.3889H15.3891H15.3893H15.3894H15.3896H15.3898H15.39H15.3902H15.3903H15.3905H15.3907H15.3909H15.3911H15.3912H15.3914H15.3916H15.3918H15.3919H15.3921H15.3923H15.3925H15.3927H15.3928H15.393H15.3932H15.3934H15.3935H15.3937H15.3939H15.3941H15.3943H15.3944H15.3946H15.3948H15.395H15.3952H15.3953H15.3955H15.3957H15.3959H15.396H15.3962H15.3964H15.3966H15.3968H15.3969H15.3971H15.3973H15.3975H15.3976H15.3978H15.398H15.3982H15.3984H15.3985H15.3987H15.3989H15.3991H15.3992H15.3994H15.3996H15.3998H15.4H15.4001H15.4003H15.4005H15.4007H15.4009H15.401H15.4012H15.4014H15.4016H15.4017H15.4019H15.4021H15.4023H15.4025H15.4026H15.4028H15.403H15.4032H15.4033H15.4035H15.4037H15.4039H15.4041H15.4042H15.4044H15.4046H15.4048H15.405H15.4051H15.4053H15.4055H15.4057H15.4058H15.406H15.4062H15.4064H15.4066H15.4067H15.4069H15.4071H15.4073H15.4074H15.4076H15.4078H15.408H15.4082H15.4083H15.4085H15.4087H15.4089H15.409H15.4092H15.4094H15.4096H15.4098H15.4099H15.4101H15.4103H15.4105H15.4107H15.4108H15.411H15.4112H15.4114H15.4115H15.4117H15.4119H15.4121H15.4123H15.4124H15.4126H15.4128H15.413H15.4131H15.4133H15.4135H15.4137H15.4139H15.414H15.4142H15.4144H15.4146H15.4148H15.4149H15.4151H15.4153H15.4155H15.4156H15.4158H15.416H15.4162H15.4164H15.4165H15.4167H15.4169H15.4171H15.4172H15.4174H15.4176H15.4178H15.418H15.4181H15.4183H15.4185H15.4187H15.4188H15.419H15.4192H15.4194H15.4196H15.4197H15.4199H15.4201H15.4203H15.4205H15.4206H15.4208H15.421H15.4212H15.4213H15.4215H15.4217H15.4219H15.4221H15.4222H15.4224H15.4226H15.4228H15.4229H15.4231H15.4233H15.4235H15.4237H15.4238H15.424H15.4242H15.4244H15.4246H15.4247H15.4249H15.4251H15.4253H15.4254H15.4256H15.4258H15.426H15.4262H15.4263H15.4265H15.4267H15.4269H15.427H15.4272H15.4274H15.4276H15.4278H15.4279H15.4281H15.4283H15.4285H15.4286H15.4288H15.429H15.4292H15.4294H15.4295H15.4297H15.4299H15.4301H15.4303H15.4304H15.4306H15.4308H15.431H15.4311H15.4313H15.4315H15.4317H15.4319H15.432H15.4322H15.4324H15.4326H15.4327H15.4329H15.4331H15.4333H15.4335H15.4336H15.4338H15.434H15.4342H15.4344H15.4345H15.4347H15.4349H15.4351H15.4352H15.4354H15.4356H15.4358H15.436H15.4361H15.4363H15.4365H15.4367H15.4368H15.437H15.4372H15.4374H15.4376H15.4377H15.4379H15.4381H15.4383H15.4384H15.4386H15.4388H15.439H15.4392H15.4393H15.4395H15.4397H15.4399H15.4401H15.4402H15.4404H15.4406H15.4408H15.4409H15.4411H15.4413H15.4415H15.4417H15.4418H15.442H15.4422H15.4424H15.4425H15.4427H15.4429H15.4431H15.4433H15.4434H15.4436H15.4438H15.444H15.4441H15.4443H15.4445H15.4447H15.4449H15.445H15.4452H15.4454H15.4456H15.4458H15.4459H15.4461H15.4463H15.4465H15.4466H15.4468H15.447H15.4472H15.4474H15.4475H15.4477H15.4479H15.4481H15.4482H15.4484H15.4486H15.4488H15.449H15.4491H15.4493H15.4495H15.4497H15.4499H15.45H15.4502H15.4504H15.4506H15.4507H15.4509H15.4511H15.4513H15.4515H15.4516H15.4518H15.452H15.4522H15.4523H15.4525H15.4527H15.4529H15.4531H15.4532H15.4534H15.4536H15.4538H15.4539H15.4541H15.4543H15.4545H15.4547H15.4548H15.455H15.4552H15.4554H15.4556H15.4557H15.4559H15.4561H15.4563H15.4564H15.4566H15.4568H15.457H15.4572H15.4573H15.4575H15.4577H15.4579H15.458H15.4582H15.4584H15.4586H15.4588H15.4589H15.4591H15.4593H15.4595H15.4597H15.4598H15.46H15.4602H15.4604H15.4605H15.4607H15.4609H15.4611H15.4613H15.4614H15.4616H15.4618H15.462H15.4621H15.4623H15.4625H15.4627H15.4629H15.463H15.4632H15.4634H15.4636H15.4637H15.4639H15.4641H15.4643H15.4645H15.4646H15.4648H15.465H15.4652H15.4654H15.4655H15.4657H15.4659H15.4661H15.4662H15.4664H15.4666H15.4668H15.467H15.4671H15.4673H15.4675H15.4677H15.4678H15.468H15.4682H15.4684H15.4686H15.4687H15.4689H15.4691H15.4693H15.4695H15.4696H15.4698H15.47H15.4702H15.4703H15.4705H15.4707H15.4709H15.4711H15.4712H15.4714H15.4716H15.4718H15.4719H15.4721H15.4723H15.4725H15.4727H15.4728H15.473H15.4732H15.4734H15.4735H15.4737H15.4739H15.4741H15.4743H15.4744H15.4746H15.4748H15.475H15.4752H15.4753H15.4755H15.4757H15.4759H15.476H15.4762H15.4764H15.4766H15.4768H15.4769H15.4771H15.4773H15.4775H15.4776H15.4778H15.478H15.4782H15.4784H15.4785H15.4787H15.4789H15.4791H15.4793H15.4794H15.4796H15.4798H15.48H15.4801H15.4803H15.4805H15.4807H15.4809H15.481H15.4812H15.4814H15.4816H15.4817H15.4819H15.4821H15.4823H15.4825H15.4826H15.4828H15.483H15.4832H15.4833H15.4835H15.4837H15.4839H15.4841H15.4842H15.4844H15.4846H15.4848H15.485H15.4851H15.4853H15.4855H15.4857H15.4858H15.486H15.4862H15.4864H15.4866H15.4867H15.4869H15.4871H15.4873H15.4874H15.4876H15.4878H15.488H15.4882H15.4883H15.4885H15.4887H15.4889H15.489H15.4892H15.4894H15.4896H15.4898H15.4899H15.4901H15.4903H15.4905H15.4907H15.4908H15.491H15.4912H15.4914H15.4915H15.4917H15.4919H15.4921H15.4923H15.4924H15.4926H15.4928H15.493H15.4931H15.4933H15.4935H15.4937H15.4939H15.494H15.4942H15.4944H15.4946H15.4948H15.4949H15.4951H15.4953H15.4955H15.4956H15.4958H15.496H15.4962H15.4964H15.4965H15.4967H15.4969H15.4971H15.4972H15.4974H15.4976H15.4978H15.498H15.4981H15.4983H15.4985H15.4987H15.4988H15.499H15.4992H15.4994H15.4996H15.4997H15.4999H15.5001H15.5003H15.5005H15.5006H15.5008H15.501H15.5012H15.5013H15.5015H15.5017H15.5019H15.5021H15.5022H15.5024H15.5026H15.5028H15.5029H15.5031H15.5033H15.5035H15.5037H15.5038H15.504H15.5042H15.5044H15.5046H15.5047H15.5049H15.5051H15.5053H15.5054H15.5056H15.5058H15.506H15.5062H15.5063H15.5065H15.5067H15.5069H15.507H15.5072H15.5074H15.5076H15.5078H15.5079H15.5081H15.5083H15.5085H15.5086H15.5088H15.509H15.5092H15.5094H15.5095H15.5097C19.6999 7.5 23.7563 8.47716 27.6721 10.4662L27.7966 10.5977C29.389 14.3746 30.2922 18.2132 30.337 22.1008V22.101V22.1015V22.1019V22.1024V22.1028V22.1033V22.1037V22.1041V22.1046V22.105V22.1055V22.1059V22.1063V22.1068V22.1072V22.1077V22.1081V22.1085V22.109V22.1094V22.1098V22.1103V22.1107V22.1111V22.1116V22.112V22.1125V22.1129V22.1133V22.1138V22.1142V22.1146V22.1151V22.1155V22.1159V22.1164V22.1168V22.1172V22.1177V22.1181V22.1185V22.1189V22.1194V22.1198V22.1202V22.1207V22.1211V22.1215V22.1219V22.1224V22.1228V22.1232V22.1237V22.1241V22.1245V22.1249V22.1254V22.1258V22.1262V22.1266V22.1271V22.1275V22.1279V22.1283V22.1288V22.1292V22.1296V22.13V22.1305V22.1309V22.1313V22.1317V22.1322V22.1326V22.133V22.1334V22.1338V22.1343V22.1347V22.1351V22.1355V22.1359V22.1364V22.1368V22.1372V22.1376V22.138V22.1385V22.1389V22.1393V22.1397V22.1401V22.1406V22.141V22.1414V22.1418V22.1422V22.1426V22.1431V22.1435V22.1439V22.1443V22.1447V22.1451V22.1456V22.146V22.1464V22.1468V22.1472V22.1476V22.148V22.1485V22.1489V22.1493V22.1497V22.1501V22.1505V22.1509V22.1514V22.1518V22.1522V22.1526V22.153V22.1534V22.1538V22.1542V22.1547V22.1551V22.1555V22.1559V22.1563V22.1567V22.1571V22.1575V22.1579V22.1584V22.1588V22.1592V22.1596V22.16V22.1604V22.1608V22.1612V22.1616V22.162V22.1625V22.1629V22.1633V22.1637V22.1641V22.1645V22.1649V22.1653V22.1657V22.1661V22.1665V22.1669V22.1673V22.1678V22.1682V22.1686V22.169V22.1694V22.1698V22.1702V22.1706V22.171V22.1714V22.1718V22.1722V22.1726V22.173V22.1734V22.1739V22.1743V22.1747V22.1751V22.1755V22.1759V22.1763V22.1767V22.1771V22.1775V22.1779V22.1783V22.1787V22.1791V22.1795V22.1799V22.1803V22.1807V22.1811V22.1815V22.182V22.1824V22.1828V22.1832V22.1836V22.184V22.1844V22.1848V22.1852V22.1856V22.186V22.1864V22.1868V22.1872V22.1876V22.188V22.1884V22.1888V22.1892V22.1896V22.19V22.1904V22.1908V22.1912V22.1916V22.192V22.1924V22.1928V22.1932V22.1937V22.1941V22.1945V22.1949V22.1953V22.1957V22.1961V22.1965V22.1969V22.1973V22.1977V22.1981V22.1985V22.1989V22.1993V22.1997V22.2001V22.2005V22.2009V22.2013V22.2017V22.2021V22.2025V22.2029V22.2033V22.2037V22.2041V22.2045V22.2049V22.2053V22.2057V22.2061V22.2065V22.2069V22.2073V22.2077V22.2082V22.2086V22.209V22.2094V22.2098V22.2102V22.2106V22.211V22.2114V22.2118V22.2122V22.2126V22.213V22.2134V22.2138V22.2142V22.2146V22.215V22.2154V22.2158V22.2162V22.2166V22.217V22.2174V22.2178V22.2182V22.2186V22.219V22.2194V22.2199V22.2203V22.2207V22.2211V22.2215V22.2219V22.2223V22.2227V22.2231V22.2235V22.2239V22.2243V22.2247V22.2251V22.2255V22.2259V22.2263V22.2267V22.2271V22.2275V22.228V22.2284V22.2288V22.2292V22.2296V22.23V22.2304V22.2308V22.2312V22.2316V22.232V22.2324V22.2328V22.2332V22.2336V22.2341V22.2345V22.2349V22.2353V22.2357V22.2361V22.2365V22.2369V22.2373V22.2377V22.2381V22.2385V22.239V22.2394V22.2398V22.2402V22.2406V22.241V22.2414V22.2418V22.2422V22.2426V22.2431V22.2435V22.2439V22.2443V22.2447V22.2451V22.2455V22.2459V22.2463V22.2468V22.2472V22.2476V22.248V22.2484V22.2488V22.2492V22.2496V22.2501V22.2505V22.2509V22.2513V22.2517V22.2521V22.2525V22.253V22.2534V22.2538V22.2542V22.2546V22.255V22.2554V22.2559V22.2563V22.2567V22.2571V22.2575V22.2579V22.2584V22.2588V22.2592V22.2596V22.26V22.2604V22.2609V22.2613V22.2617V22.2621V22.2625V22.263V22.2634V22.2638V22.2642V22.2646V22.2651V22.2655V22.2659V22.2663V22.2667V22.2672V22.2676V22.268V22.2684V22.2688V22.2693V22.2697V22.2701V22.2705V22.271V22.2714V22.2718V22.2722V22.2727V22.2731V22.2735V22.2739V22.2744V22.2748V22.2752V22.2756V22.2761V22.2765V22.2769V22.2773V22.2778V22.2782V22.2786V22.2791V22.2795V22.2799V22.2803V22.2808V22.2812V22.2816V22.2821V22.2825V22.2829V22.2834V22.2838V22.2842V22.2847V22.2851V22.2855V22.286V22.2864V22.2868V22.2873V22.2877V22.2881V22.2886V22.289V22.2894V22.2899V22.2903V22.2907V22.2912V22.2916V22.292V22.2925V22.2929V22.2934V22.2938V22.2942V22.2947V22.2951V22.2956V22.296V22.2964V22.2969V22.2973V22.2978V22.2982V22.2986V22.2991V22.2995V22.3V22.3004V22.3009V22.3013V22.3017V22.3022V22.3026V22.3031V22.3035V22.304V22.3044V22.3049V22.3053V22.3058V22.3062V22.3067V22.3071V22.3076V22.308V22.3085V22.3089V22.3094V22.3098V22.3103V22.3107V22.3112V22.3116V22.3121V22.586C30.3221 26.3228 29.5245 30.1398 27.8058 34.0246L27.6653 34.1567C23.5758 35.9587 19.4942 36.8634 15.4185 36.91C11.3428 36.8634 7.2612 35.9587 3.17165 34.1567L3.03115 34.0246C1.31252 30.1398 0.514937 26.3228 0.5 22.586V22.3121V22.3116V22.3112V22.3107V22.3103V22.3098V22.3094V22.3089V22.3085V22.308V22.3076V22.3071V22.3067V22.3062V22.3058V22.3053V22.3049V22.3044V22.304V22.3035V22.3031V22.3026V22.3022V22.3017V22.3013V22.3009V22.3004V22.3V22.2995V22.2991V22.2986V22.2982V22.2978V22.2973V22.2969V22.2964V22.296V22.2956V22.2951V22.2947V22.2942V22.2938V22.2934V22.2929V22.2925V22.292V22.2916V22.2912V22.2907V22.2903V22.2899V22.2894V22.289V22.2886V22.2881V22.2877V22.2873V22.2868V22.2864V22.286V22.2855V22.2851V22.2847V22.2842V22.2838V22.2834V22.2829V22.2825V22.2821V22.2816V22.2812V22.2808V22.2803V22.2799V22.2795V22.2791V22.2786V22.2782V22.2778V22.2773V22.2769V22.2765V22.2761V22.2756V22.2752V22.2748V22.2744V22.2739V22.2735V22.2731V22.2727V22.2722V22.2718V22.2714V22.271V22.2705V22.2701V22.2697V22.2693V22.2688V22.2684V22.268V22.2676V22.2672V22.2667V22.2663V22.2659V22.2655V22.2651V22.2646V22.2642V22.2638V22.2634V22.263V22.2625V22.2621V22.2617V22.2613V22.2609V22.2604V22.26V22.2596V22.2592V22.2588V22.2584V22.2579V22.2575V22.2571V22.2567V22.2563V22.2559V22.2554V22.255V22.2546V22.2542V22.2538V22.2534V22.253V22.2525V22.2521V22.2517V22.2513V22.2509V22.2505V22.2501V22.2496V22.2492V22.2488V22.2484V22.248V22.2476V22.2472V22.2468V22.2463V22.2459V22.2455V22.2451V22.2447V22.2443V22.2439V22.2435V22.2431V22.2426V22.2422V22.2418V22.2414V22.241V22.2406V22.2402V22.2398V22.2394V22.239V22.2385V22.2381V22.2377V22.2373V22.2369V22.2365V22.2361V22.2357V22.2353V22.2349V22.2345V22.2341V22.2336V22.2332V22.2328V22.2324V22.232V22.2316V22.2312V22.2308V22.2304V22.23V22.2296V22.2292V22.2288V22.2284V22.228V22.2275V22.2271V22.2267V22.2263V22.2259V22.2255V22.2251V22.2247V22.2243V22.2239V22.2235V22.2231V22.2227V22.2223V22.2219V22.2215V22.2211V22.2207V22.2203V22.2199V22.2194V22.219V22.2186V22.2182V22.2178V22.2174V22.217V22.2166V22.2162V22.2158V22.2154V22.215V22.2146V22.2142V22.2138V22.2134V22.213V22.2126V22.2122V22.2118V22.2114V22.211V22.2106V22.2102V22.2098V22.2094V22.209V22.2086V22.2082V22.2077V22.2073V22.2069V22.2065V22.2061V22.2057V22.2053V22.2049V22.2045V22.2041V22.2037V22.2033V22.2029V22.2025V22.2021V22.2017V22.2013V22.2009V22.2005V22.2001V22.1997V22.1993V22.1989V22.1985V22.1981V22.1977V22.1973V22.1969V22.1965V22.1961V22.1957V22.1953V22.1949V22.1945V22.1941V22.1937V22.1932V22.1928V22.1924V22.192V22.1916V22.1912V22.1908V22.1904V22.19V22.1896V22.1892V22.1888V22.1884V22.188V22.1876V22.1872V22.1868V22.1864V22.186V22.1856V22.1852V22.1848V22.1844V22.184V22.1836V22.1832V22.1828V22.1824V22.182V22.1815V22.1811V22.1807V22.1803V22.1799V22.1795V22.1791V22.1787V22.1783V22.1779V22.1775V22.1771V22.1767V22.1763V22.1759V22.1755V22.1751V22.1747V22.1743V22.1739V22.1734V22.173V22.1726V22.1722V22.1718V22.1714V22.171V22.1706V22.1702V22.1698V22.1694V22.169V22.1686V22.1682V22.1678V22.1673V22.1669V22.1665V22.1661V22.1657V22.1653V22.1649V22.1645V22.1641V22.1637V22.1633V22.1629V22.1625V22.162V22.1616V22.1612V22.1608V22.1604V22.16V22.1596V22.1592V22.1588V22.1584V22.1579V22.1575V22.1571V22.1567V22.1563V22.1559V22.1555V22.1551V22.1547V22.1542V22.1538V22.1534V22.153V22.1526V22.1522V22.1518V22.1514V22.1509V22.1505V22.1501V22.1497V22.1493V22.1489V22.1485V22.148V22.1476V22.1472V22.1468V22.1464V22.146V22.1456V22.1451V22.1447V22.1443V22.1439V22.1435V22.1431V22.1426V22.1422V22.1418V22.1414V22.141V22.1406V22.1401V22.1397V22.1393V22.1389V22.1385V22.138V22.1376V22.1372V22.1368V22.1364V22.1359V22.1355V22.1351V22.1347V22.1343V22.1338V22.1334V22.133V22.1326V22.1322V22.1317V22.1313V22.1309V22.1305V22.13V22.1296V22.1292V22.1288V22.1283V22.1279V22.1275V22.1271V22.1266V22.1262V22.1258V22.1254V22.1249V22.1245V22.1241V22.1237V22.1232V22.1228V22.1224V22.1219V22.1215V22.1211V22.1207V22.1202V22.1198V22.1194V22.1189V22.1185V22.1181V22.1177V22.1172V22.1168V22.1164V22.1159V22.1155V22.1151V22.1146V22.1142V22.1138V22.1133V22.1129V22.1125V22.112V22.1116V22.1111V22.1107V22.1103V22.1098V22.1094V22.109V22.1085V22.1081V22.1077V22.1072V22.1068V22.1063V22.1059V22.1055V22.105V22.1046V22.1041V22.1037V22.1033V22.1028V22.1024V22.1019V22.1015V22.101V22.1008L15.3273 7.5Z" stroke="white"></path>
  <path fill-rule="evenodd" clip-rule="evenodd" d="M15.6935 30.6947C15.4794 27.7729 15.6175 24.7283 14.7457 21.9446C13.9348 19.3446 10.8598 17.8609 10.7989 15C10.7381 12.7662 12.4359 10.1815 15.6175 10.1815C18.6 10.1663 20.4512 12.338 20.6653 14.7555C20.925 17.5543 17.5294 19.4359 16.6425 22.0979C15.7239 24.8207 15.9849 27.8337 15.6935 30.6947Z" fill="#003399"></path>
  <path fill-rule="evenodd" clip-rule="evenodd" d="M16.8718 29.9902C16.7489 27.4511 16.7489 25.0197 17.4534 22.8619C18.2326 20.4153 19.8544 18.35 22.3327 17.6772C24.0305 17.2185 26.5228 19.2065 26.1262 21.2414C25.7892 22.8784 24.1522 24.8055 21.5218 25.0197C20.2979 25.1261 19.7784 26.1055 19.0131 26.6719C22.4391 26.3348 24.6577 24.9892 26.2022 23.5816C26.4316 24.7738 26.5849 26.7783 25.6511 27.4663C23.8164 28.7663 22.1186 27.7108 19.9608 28.3228C18.7533 28.675 18.0033 29.4403 16.8718 29.9902Z" fill="#003399"></path>
  <path fill-rule="evenodd" clip-rule="evenodd" d="M14.5318 29.9902C14.6687 27.4511 14.6535 25.0197 13.9655 22.8619C13.185 20.4153 11.5645 18.35 9.08615 17.6772C7.38833 17.2185 4.87961 19.2065 5.29266 21.2414C5.62969 22.8784 7.26542 24.8055 9.89705 25.0197C11.1058 25.1261 11.6405 26.1055 12.4058 26.6719C8.96324 26.3348 6.76115 24.9892 5.21664 23.5816C4.9873 24.7738 4.83399 26.7783 5.76653 27.4663C7.60245 28.7663 9.30027 27.7108 11.4568 28.3228C12.6655 28.675 13.3991 29.4403 14.5318 29.9902Z" fill="#003399"></path>
  <path fill-rule="evenodd" clip-rule="evenodd" d="M22.6836 33.7686V33.3555L22.9902 33.2795L22.6836 32.8208V32.0555L24.0609 33.9675L23.5718 34.0904L23.2347 33.6153L22.6836 33.7686ZM22.6836 32.0555V32.8208L22.4695 32.5142L22.3782 33.4328L22.6836 33.3555V33.7686L22.3326 33.8459L22.2705 34.411L21.7815 34.5339L22.1033 32.0403L22.5924 31.9174L22.6836 32.0555ZM18.1261 35.1002V34.7024H18.2325C18.401 34.6872 18.5087 34.672 18.5543 34.6555C18.6152 34.6403 18.676 34.5947 18.7076 34.5491C18.7533 34.4882 18.7685 34.4262 18.7685 34.3501C18.7533 34.2741 18.7381 34.212 18.6912 34.1664C18.6608 34.1208 18.6 34.0904 18.5391 34.0752C18.4783 34.06 18.3402 34.06 18.1261 34.0752V33.6773C18.2477 33.6773 18.325 33.6621 18.3554 33.6621C18.4314 33.6469 18.4935 33.6001 18.5391 33.5544C18.5847 33.5088 18.6 33.448 18.5847 33.3707C18.5847 33.2947 18.5543 33.2339 18.5087 33.2022C18.4783 33.1566 18.4162 33.1262 18.325 33.1262C18.2946 33.1262 18.2325 33.1262 18.1261 33.1414V32.7435C18.2946 32.7283 18.4162 32.7283 18.4935 32.7435C18.5847 32.7435 18.676 32.7752 18.7533 32.8208C18.8293 32.8512 18.8901 32.9121 18.9522 32.9881C18.9978 33.0654 19.0282 33.1566 19.0434 33.2643C19.0586 33.3707 19.0282 33.4784 18.9826 33.5697C18.937 33.6621 18.8597 33.7382 18.7533 33.799C18.9053 33.8307 19.0282 33.8915 19.1042 33.9827C19.1967 34.0752 19.2423 34.1816 19.2575 34.3197C19.2575 34.4262 19.2423 34.5339 19.2119 34.6403C19.1663 34.748 19.1042 34.824 19.0282 34.9013C18.937 34.9621 18.8445 35.0077 18.7229 35.0381C18.6456 35.0533 18.4466 35.0685 18.1565 35.1002H18.1261ZM21.0162 33.8142L21.4913 33.8763C21.4609 34.136 21.3836 34.3501 21.2468 34.5035C21.1087 34.6403 20.9097 34.748 20.6652 34.7936C20.3586 34.8392 20.0836 34.7784 19.8543 34.6099C19.6098 34.4262 19.4717 34.1664 19.3956 33.799C19.3336 33.4176 19.3804 33.0958 19.5477 32.8512C19.701 32.6067 19.9455 32.4534 20.2674 32.3926C20.5575 32.3457 20.7868 32.3926 21.001 32.5294C21.1239 32.6067 21.2303 32.7283 21.3076 32.9121L20.8641 33.0958C20.8185 32.9881 20.7412 32.8969 20.65 32.8512C20.5423 32.7904 20.4359 32.7752 20.313 32.7904C20.1445 32.8208 20.0228 32.9121 19.9303 33.0502C19.8391 33.2022 19.8239 33.4024 19.8695 33.6773C19.9303 33.9675 20.0228 34.1664 20.1445 34.2741C20.2674 34.3806 20.4207 34.4262 20.5879 34.3958C20.7108 34.3653 20.8033 34.3045 20.8793 34.212C20.9554 34.1208 21.001 33.9827 21.0162 33.8142ZM18.1261 32.7435V33.1414C18.0653 33.1414 18.0032 33.1566 17.9272 33.1566L17.6522 33.1883L17.6978 33.723L18.0184 33.6926C18.0488 33.6926 18.0957 33.6926 18.1261 33.6773V34.0752C18.1261 34.0752 18.1261 34.0752 18.1109 34.0752L17.7434 34.1056L17.7891 34.7328L18.1261 34.7024V35.1002L17.3608 35.1762L17.1467 32.836L18.0805 32.76C18.0957 32.7435 18.1109 32.7435 18.1261 32.7435ZM15.1739 34.2893V33.8915C15.2803 33.8915 15.3424 33.8763 15.388 33.8611C15.4488 33.8459 15.4945 33.799 15.5413 33.7534C15.5718 33.6926 15.587 33.6317 15.587 33.5697C15.6022 33.4784 15.5718 33.4176 15.5249 33.3555C15.4793 33.2947 15.4184 33.2643 15.3424 33.2491C15.2955 33.2491 15.2499 33.2339 15.1739 33.2339V32.836C15.4032 32.836 15.5413 32.8512 15.6174 32.8817C15.7555 32.9121 15.8619 32.9881 15.9544 33.111C16.0456 33.2339 16.0912 33.3859 16.076 33.5697C16.076 33.7078 16.0456 33.8307 16 33.9371C15.9379 34.0283 15.8771 34.1056 15.8011 34.1664C15.7086 34.212 15.6326 34.2424 15.5413 34.2741C15.4488 34.2893 15.3272 34.2893 15.1739 34.2893ZM15.1739 32.836V33.2339C15.1283 33.2339 15.0662 33.2339 14.9902 33.2339L14.7609 33.2187V33.8915H15.0054C15.0662 33.8915 15.1283 33.8915 15.1739 33.8915V34.2893C15.1435 34.2893 15.0966 34.2893 15.051 34.2893H14.7456L14.7304 35.1762L14.2553 35.161L14.3022 32.8208L15.051 32.836C15.0966 32.836 15.1435 32.836 15.1739 32.836ZM10.7532 34.06V33.3403C10.8913 33.3707 10.9826 33.3707 11.0282 33.3707C11.0903 33.3555 11.1359 33.3403 11.1815 33.2947C11.2119 33.2491 11.2423 33.2022 11.2575 33.1262C11.2727 33.0502 11.2575 32.9881 11.2271 32.9273C11.1967 32.8665 11.1359 32.836 11.0586 32.8056C11.0282 32.7904 10.9217 32.7752 10.7532 32.7435V32.3457L10.9522 32.3774C11.1967 32.423 11.3652 32.4686 11.4716 32.5294C11.5793 32.5915 11.6554 32.6827 11.701 32.8056C11.7479 32.9121 11.7631 33.0502 11.7326 33.1883C11.701 33.3555 11.625 33.4936 11.5033 33.5849C11.3956 33.6773 11.2271 33.723 11.013 33.723C11.1055 33.799 11.1815 33.8763 11.2271 33.9523C11.2879 34.0448 11.35 34.1816 11.426 34.3806L11.625 34.8861L11.0738 34.7784L10.8293 34.212C10.7988 34.1664 10.7836 34.1056 10.7532 34.06ZM12.0988 32.6067L12.5575 32.6523L12.4511 33.9219C12.4359 34.1208 12.4359 34.2589 12.4359 34.3045C12.4511 34.411 12.4967 34.4882 12.5575 34.5491C12.6348 34.6251 12.726 34.6555 12.8641 34.672C13.0022 34.6872 13.1086 34.6555 13.1695 34.6099C13.2468 34.5643 13.2924 34.5035 13.3228 34.4262C13.338 34.3501 13.3532 34.212 13.3684 34.0283L13.4761 32.7283L13.95 32.7752L13.8435 33.9979C13.8283 34.2893 13.7966 34.4882 13.751 34.5947C13.7206 34.7024 13.6598 34.8088 13.5977 34.8696C13.5217 34.9469 13.4153 35.0077 13.2924 35.0381C13.1847 35.085 13.0326 35.085 12.8489 35.0685C12.6196 35.0533 12.4511 35.0077 12.3434 34.9469C12.2369 34.8861 12.1444 34.8088 12.0836 34.7328C12.0228 34.6403 11.9924 34.5491 11.9772 34.4578C11.962 34.3197 11.962 34.1208 11.9772 33.8611L12.0988 32.6067ZM8.38262 33.2947L8.47385 32.9121L9.46847 33.1718L9.22393 34.0752C9.10103 34.1512 8.94772 34.1968 8.73359 34.212C8.53466 34.2272 8.35221 34.212 8.16849 34.1664C7.92269 34.1056 7.72503 33.9979 7.58693 33.8611C7.43362 33.7078 7.34239 33.524 7.29678 33.3251C7.2651 33.111 7.2651 32.8969 7.32718 32.6827C7.388 32.4534 7.49443 32.2545 7.64774 32.086C7.78585 31.9339 7.96957 31.8414 8.1837 31.7958C8.35221 31.7502 8.54987 31.7654 8.76526 31.8262C9.04021 31.9022 9.25434 32.0099 9.37597 32.1785C9.49887 32.3305 9.55969 32.5294 9.54449 32.7435L9.07062 32.7131C9.07062 32.5915 9.04021 32.4838 8.96292 32.3926C8.8869 32.3153 8.79567 32.2393 8.65757 32.2089C8.45864 32.1632 8.29013 32.1785 8.13682 32.2697C7.98477 32.3622 7.87708 32.5446 7.80105 32.7904C7.72503 33.0654 7.74024 33.2795 7.81626 33.448C7.90748 33.6153 8.04559 33.723 8.22931 33.7686C8.33574 33.799 8.42823 33.799 8.53466 33.799C8.64236 33.7838 8.73359 33.7534 8.82608 33.723L8.9021 33.4328L8.38262 33.2947ZM10.7532 32.3457L9.95754 32.2089L9.55969 34.5187L10.0184 34.5947L10.1869 33.6317L10.2946 33.6469C10.401 33.6621 10.4783 33.6926 10.5239 33.7078C10.5695 33.7382 10.5999 33.7838 10.6455 33.8307C10.6607 33.8763 10.7076 33.9523 10.7532 34.06V33.3403C10.7076 33.3403 10.6607 33.3251 10.5999 33.3251L10.2642 33.2643L10.3554 32.6827L10.7228 32.7435C10.738 32.7435 10.7532 32.7435 10.7532 32.7435V32.3457Z" fill="#003399"></path>
  <path fill-rule="evenodd" clip-rule="evenodd" d="M83.6544 29.4859V25.1717H85.5511V17.5847L83.6544 21.3782V11.9097H91.1033L93 33.7229H85.5511V29.4859H83.6544ZM83.6544 11.9097V21.3782L81.7576 25.1717H83.6544V29.4859H80.075L78.6065 33.4935H73.9869V28.5065L79.1412 17.3858H78.0858L81.0228 11.9097H83.6544ZM73.9869 19.1761L76.2967 13.7L73.9869 12.4152V19.1761ZM55.6163 17.0804C55.724 16.4532 55.724 15.8413 55.6163 15.2597V17.0804ZM73.9869 12.4152V19.1761L73.6816 19.9097C69.1228 16.6522 62.3923 19.6195 62.0097 23.0608C61.6283 26.6554 64.3664 29.5619 71.3566 27.3902L68.9543 33.8141C59.7316 34.8391 56.1522 31.1837 55.6163 26.9164V24.4989C55.7544 23.3826 56.0445 22.2968 56.4424 21.287C60.9859 9.99772 68.3575 12.5368 71.1577 12.3227L71.5707 11.0684L73.9869 12.4152ZM73.9869 28.5065L71.6771 33.4935H73.9869V28.5065ZM47.3261 33.3554C52.2662 32.3773 57.1152 26.4412 52.251 21.7152C54.1478 20.7054 55.3261 18.8859 55.6163 17.0804V15.2597C55.2805 13.3782 53.8272 11.8488 51.0892 11.8032L47.3261 11.7259V15.9173H48.8858C50.5532 15.9173 50.3391 20.2315 48.2586 20.2315H47.3261V23.5359C49.5751 23.9642 48.7794 27.0836 47.3261 28.0478V33.3554ZM55.6163 26.9164V24.4989C55.525 25.3098 55.525 26.1207 55.6163 26.9164ZM40.8097 11.5891L37.7663 17.4935L39.1271 17.3858L35.4565 33.4935H45.9653C46.424 33.4935 46.8674 33.4479 47.3261 33.3554V28.0478C47.0663 28.2316 46.7749 28.338 46.4848 28.338H42.7065L43.9609 23.4891H46.7901C46.9891 23.4891 47.1728 23.5043 47.3261 23.5359V20.2315H44.6945L45.7499 15.9173H47.3261V11.7259L40.8097 11.5891Z" fill="white"></path>
  <path d="M187.459 22.1877H190.91V34.0559H187.459V22.1877ZM178.964 34.0559V25.8721C178.964 25.2015 178.952 24.5592 178.928 23.9406C178.905 23.3256 178.874 22.7424 178.827 22.1877H181.991L182.116 24.3108C182.416 23.5822 182.897 23.031 183.554 22.6561C184.208 22.2823 185.028 22.0966 186.005 22.0966H186.108L186.096 25.2133C185.887 25.1979 185.734 25.1861 185.631 25.1778C185.525 25.1695 185.43 25.166 185.347 25.166C184.445 25.166 183.74 25.3872 183.231 25.8248C182.719 26.2613 182.464 26.8728 182.464 27.6487V34.0559H178.964ZM173.745 22.1877H177.197V34.0559H173.745V22.1877ZM168.152 34.0559L168.038 32.3609C167.613 32.9996 167.1 33.481 166.502 33.8039C165.902 34.1269 165.226 34.2889 164.469 34.2889C163.03 34.2889 161.864 33.7247 160.965 32.5975C160.071 31.4703 159.622 29.9776 159.622 28.1253C159.622 26.2613 160.059 24.7686 160.938 23.6485C161.817 22.5307 162.978 21.9701 164.425 21.9701C165.209 21.9701 165.895 22.1238 166.478 22.4278C167.065 22.7306 167.569 23.1955 167.991 23.8188V17.0295H171.419V31.6678C171.419 32.2663 171.427 32.7548 171.446 33.1262C171.466 33.5 171.498 33.811 171.534 34.0559H168.152ZM163.12 28.1455C163.12 29.3708 163.333 30.3206 163.755 30.9936C164.177 31.6678 164.771 32.0026 165.532 32.0026C166.308 32.0026 166.928 31.6595 167.381 30.97C167.834 30.2804 168.062 29.3389 168.062 28.1455C168.062 26.9473 167.834 25.9975 167.381 25.3079C166.928 24.6148 166.308 24.2682 165.532 24.2682C164.771 24.2682 164.177 24.6065 163.755 25.289C163.333 25.9703 163.12 26.9236 163.12 28.1455ZM146.808 34.0559V24.4646C146.808 24.1263 146.801 23.7715 146.781 23.4013C146.761 23.031 146.73 22.6253 146.695 22.1877H149.981L150.052 23.9678C150.496 23.251 151.029 22.7271 151.64 22.3959C152.25 22.0647 152.999 21.8991 153.885 21.8991C155.193 21.8991 156.163 22.2705 156.797 23.0145C157.431 23.7549 157.75 24.8904 157.75 26.415V34.0559H154.358V26.8881C154.358 26.001 154.204 25.3671 153.9 24.9815C153.598 24.5982 153.106 24.4055 152.42 24.4055C151.757 24.4055 151.221 24.6184 150.819 25.0477C150.414 25.4735 150.212 26.0413 150.212 26.7498V34.0559H146.808ZM114.091 34.0559V24.4646C114.091 24.0388 114.083 23.6414 114.067 23.2676C114.051 22.8927 114.027 22.5343 114 22.1877H117.267L117.357 23.9678C117.803 23.251 118.33 22.7271 118.945 22.3959C119.556 22.0647 120.304 21.8991 121.187 21.8991C122.082 21.8991 122.834 22.0966 123.453 22.4952C124.067 22.8927 124.516 23.4675 124.8 24.2209C125.187 23.4202 125.691 22.8335 126.313 22.4586C126.936 22.0848 127.724 21.8991 128.681 21.8991C129.99 21.8991 130.962 22.2705 131.601 23.0145C132.24 23.7549 132.558 24.8904 132.558 26.415V34.0559H129.13V26.8881C129.13 26.001 128.977 25.3671 128.674 24.9815C128.37 24.5982 127.878 24.4055 127.192 24.4055C126.531 24.4055 125.998 24.6184 125.604 25.0477C125.206 25.4735 125.009 26.0413 125.009 26.7498V34.0559H121.581V26.8881C121.581 26.0093 121.432 25.3789 121.132 24.9886C120.832 24.5982 120.348 24.4055 119.677 24.4055C119.016 24.4055 118.492 24.6184 118.102 25.0406C117.712 25.4652 117.519 26.033 117.519 26.7498V34.0559H114.091ZM141.834 32.8163C141.142 33.4195 139.79 34.0677 138.859 34.2771C138.503 34.3599 138.114 34.4001 137.693 34.4001C136.695 34.4001 135.862 34.0488 135.189 33.3486C134.517 32.646 134.182 31.7506 134.182 30.6624C134.182 29.7884 134.354 29.0787 134.695 28.5275C135.04 27.9728 135.523 27.5375 136.151 27.2193C136.772 26.9035 137.547 26.6752 138.467 26.5404C139.389 26.4067 140.344 26.305 141.332 26.2435V26.1785C141.332 23.3398 137.285 23.6934 135.553 24.907L134.954 22.6703C136.306 22.0351 137.638 21.7134 139.293 21.7134C142.194 21.7134 144.645 23.1044 144.645 26.4292V34.0807H141.834V32.8163ZM141.562 30.5004V28.2117C141.039 28.2626 140.469 28.33 139.857 28.4139C139.246 28.5015 138.782 28.602 138.465 28.7156C138.078 28.8528 137.78 29.0586 137.578 29.3223C137.372 29.5908 137.269 29.9386 137.269 30.3738C137.269 33.3793 140.778 32.4035 141.562 30.5004Z" fill="white"></path>
  <path fill-rule="evenodd" clip-rule="evenodd" d="M152.312 14.6273C153.371 15.8101 155.341 19.019 157.674 18.8203C163.139 18.3567 166.251 12.4463 172.999 12.8685C175.77 13.0412 177.076 17.6908 179.825 18.0917C184.156 18.7222 188.308 12.0607 195.368 12.4427C198.272 12.6 199.471 17.4779 202.364 17.7594C205.062 18.0219 209.287 14.198 213 12.2156C212.055 10.6224 210.297 8.13615 208.427 8.01077C204.745 7.76238 201.8 12.4664 198.562 11.6455C196.677 11.1676 194.53 5.98937 191.425 6.00002C185.677 6.01894 181.712 11.7094 176.629 12.1588C173.747 12.4143 172.359 6.0012 168.499 6.59023C163.214 7.3969 157.813 11.752 152.312 14.6273Z" fill="white"></path>
  <path fill-rule="evenodd" clip-rule="evenodd" d="M264.082 11C265.135 11.7216 266.207 12.816 266.207 13.8725V32.5044C266.207 33.5483 265.222 35.0252 264.327 35.6137C267.488 35.6137 270.65 35.6137 273.812 35.6137C279.949 35.3601 283.671 33.1448 284.116 28.4984C284.427 25.2405 282.706 22.7071 278.476 21.2779C280.586 20.475 281.721 18.7263 281.825 16.3148C282.003 12.1672 277.176 11 274.139 11L264.082 11ZM269.968 20.9766V13.2083H272.88C276.181 13.2083 277.738 14.8281 277.736 17.2704C277.736 19.7127 275.503 20.9766 272.716 20.9766H269.968ZM273.072 33.2415H269.968V23.1836H273.485C278.723 23.1836 280.308 26.3335 280.026 28.9075C279.746 31.4829 277.533 33.2415 273.072 33.2415ZM292.467 11H287.314C288.46 12.2751 288.959 12.9449 288.959 14.922V31.9019C288.959 33.8566 288.093 35.0574 286.848 35.9066H293.707C292.689 35.2844 291.593 34.064 291.593 31.8557V16.8571C295.057 21.4839 298.522 26.1121 301.986 30.7403C303.95 33.3101 306.227 35.489 308.883 37.1957V14.8323C308.883 12.5932 309.786 11.7384 310.994 11H304.308C305.52 11.8996 306.163 12.9141 306.163 14.744V29.7188L292.467 11ZM314.79 35.9066C316.177 34.986 316.882 33.9056 316.882 32.5044V14.7188C316.882 12.617 316.275 12.1406 315.084 11H323C321.634 11.7693 320.675 13.34 320.675 14.7188V32.4554C320.675 33.816 321.481 35.063 322.574 35.9066H314.79Z" fill="white"></path>
  <path fill-rule="evenodd" clip-rule="evenodd" d="M233 11H240.641C240.241 11.6852 239.94 13.2251 240.712 16.6833C241.399 19.7576 243.384 22.9636 245.457 25.4984L242.853 27.6352L233 15.2555V11ZM244.158 11H257.61V14.2592C256.568 13.6511 254.671 13.064 251.886 14.178C247.39 15.9771 247.005 21.2429 247.005 21.2429C244.518 18.2387 242.883 13.3134 244.158 11ZM257.61 18.5834V28.2854C254.553 29.4456 250.266 26.4288 249.188 22.8473C247.627 17.6572 251.307 15.7837 253.94 16.298C255.908 16.6819 257.05 17.8547 257.61 18.5834ZM257.61 29.8772V35.6109H249.365L251.018 34.2531C249.939 34.3849 247.821 33.8776 246.789 32.5815L243.887 28.9355L246.54 26.7566C248.171 28.5544 249.723 29.8449 250.601 30.2331C252.481 31.0626 254.598 31.4619 257.61 29.8772ZM244.762 35.6109H235.756L241.367 31.0037C241.826 31.581 242.269 32.1387 242.691 32.667C243.518 33.7067 244.211 34.731 244.762 35.6109ZM233.139 35.6109H233V20.4904C235.142 23.1836 237.88 26.6235 240.333 29.7048L233.139 35.6109Z" fill="white"></path>
</svg>
