<?xml version="1.0" encoding="UTF-8"?>
<svg xmlns="http://www.w3.org/2000/svg" width="452" height="45" viewBox="0 0 452 45" fill="none">
  <path fill-rule="evenodd" clip-rule="evenodd" d="M302.267 34.1722H275V9H302.267V34.1722Z" fill="#7B131F"></path>
  <path fill-rule="evenodd" clip-rule="evenodd" d="M278.435 13.3933H293.045L300.351 21.5414L293.045 30.4558H278.435L284.974 21.5414L278.435 13.3933Z" fill="#E2071F"></path>
  <path fill-rule="evenodd" clip-rule="evenodd" d="M300.351 21.5414L293.045 13.3933H278.435L284.974 21.5414H300.351Z" fill="white"></path>
  <path d="M320.734 18.0549C319.98 17.1737 318.895 16.6629 317.49 16.6629C314.629 16.6629 312.522 18.9617 312.522 22.129C312.522 25.2963 314.629 27.5951 317.362 27.5951C318.882 27.5951 320.121 26.9182 320.9 25.7688L324.042 28.0932C322.611 30.111 320.197 31.0433 317.847 31.0433C312.496 31.0433 308.601 27.5695 308.601 22.129C308.601 16.6884 312.496 13.2146 317.847 13.2146C319.763 13.2146 322.19 13.8659 323.633 15.705L320.721 18.0549H320.734Z" fill="white"></path>
  <path d="M326.06 13.6487H329.84V30.609H326.06V13.6487Z" fill="white"></path>
  <path d="M333.275 13.6487H338.984L342.93 24.7086H342.982L346.953 13.6487H352.649V30.609H348.869V17.595H348.831L344.323 30.609H341.436L337.107 17.595H337.043V30.609H333.275V13.6487Z" fill="white"></path>
  <path d="M356.136 13.6488H362.534C365.535 13.6488 368.805 14.2746 368.805 17.9655C368.805 19.8556 367.617 21.1455 365.855 21.6947V21.7458C368.102 22.0267 369.609 23.687 369.609 25.8837C369.609 29.4213 366.212 30.5963 363.16 30.5963H356.149V13.636L356.136 13.6488ZM359.916 20.4303H362.662C363.824 20.4303 365.037 19.945 365.037 18.5913C365.037 17.1736 363.684 16.816 362.483 16.816H359.916V20.4303ZM359.916 27.4545H363.313C364.501 27.4545 365.829 26.9565 365.829 25.4622C365.829 23.853 364.016 23.5848 362.777 23.5848H359.916V27.4418V27.4545Z" fill="white"></path>
  <path d="M374.412 13.917H376.902L386.544 27.7483H386.595V13.917H388.562V30.5708H386.072L376.442 16.7395H376.391V30.5708H374.412V13.917Z" fill="white"></path>
  <path d="M392.7 13.917H394.68V30.5708H392.7V13.917Z" fill="white"></path>
  <path d="M404.233 13.917H406.085L413.16 30.558H410.848L409.162 26.4712H400.836L399.111 30.558H396.876L404.22 13.917H404.233ZM405.127 16.4585H405.076L401.615 24.6449H408.409L405.114 16.4585H405.127Z" fill="white"></path>
  <path d="M429.533 29.434C427.63 30.494 425.472 30.9794 423.3 30.9794C418.128 30.9794 414.412 27.4545 414.412 22.231C414.412 16.9948 418.383 13.4827 423.364 13.4827C425.548 13.4827 427.668 14.0701 429.239 15.6793L427.758 17.2247C426.634 15.9986 424.91 15.3217 423.211 15.3217C419.405 15.3217 416.506 18.1953 416.506 22.231C416.506 26.2029 419.303 29.1531 423.403 29.1531C424.744 29.1531 426.314 28.7955 427.541 28.1824V23.0739H423.709V21.2476H429.52V29.434H429.533Z" fill="white"></path>
  <path d="M439.073 13.917H440.924L448 30.558H445.701L444.002 26.4712H435.675L433.951 30.558H431.716L439.06 13.917H439.073ZM439.967 16.4585H439.928L436.467 24.6449H443.262L439.967 16.4585Z" fill="white"></path>
  <path d="M87.4583 30.9114C85.3398 30.9114 83.2329 30.5251 81.9805 30.0452V13.0381H86.4049V18.7032C86.9784 18.5159 87.9382 18.317 88.7107 18.317C92.4563 18.317 95.0548 20.4355 95.0548 24.0874C95.1484 28.7928 92.3627 30.9114 87.4583 30.9114ZM87.8446 21.2081C87.3647 21.2081 86.7912 21.3017 86.4049 21.5007V27.9383C86.6975 28.032 87.1774 28.1256 87.6573 28.1256C89.4833 28.1256 90.5367 26.8732 90.5367 24.5673C90.6303 22.4488 89.6705 21.2081 87.8446 21.2081Z" fill="white"></path>
  <path d="M102.546 30.9113C97.9344 30.9113 95.7222 29.4716 95.7222 26.8732C95.7222 23.7012 99.6667 22.9286 103.986 22.7414V22.2615C103.986 21.3017 103.213 20.8218 101.68 20.8218C100.24 20.8218 98.6016 21.208 97.5481 21.5943L96.4947 19.1012C97.7471 18.7149 99.5731 18.1414 102.265 18.1414C106.21 18.1414 108.223 19.4874 108.223 22.6594V29.9632C107.064 30.5368 104.864 30.923 102.558 30.923L102.546 30.9113ZM103.986 25.1408C101.586 25.2345 99.7603 25.4335 99.7603 26.8732C99.7603 27.833 100.72 28.4065 102.359 28.4065C102.932 28.4065 103.705 28.3129 103.997 28.2192V25.1408H103.986Z" fill="white"></path>
  <path d="M118.02 30.6188V22.7415C118.02 21.7817 117.446 21.1028 115.901 21.1028C115.035 21.1028 114.368 21.3954 114.368 21.3954V30.6188H109.943V19.1832C111.582 18.7033 113.502 18.2234 115.995 18.2234C120.513 18.2234 122.526 19.7567 122.526 22.3552V30.6188H118.008H118.02Z" fill="white"></path>
  <path d="M133.002 30.6187L128.589 24.5673H128.496V30.6187H124.071V13.0381H128.496V23.7012H128.589L132.628 18.5159H137.625L133.107 24.1811L138 30.6187H133.002Z" fill="white"></path>
  <path d="M73.7172 35.5231H69.1055L71.3177 30.7241L65.8398 18.6096H70.6388L73.6236 27.1658L76.5029 18.6096H81.3019L73.7172 35.5231Z" fill="white"></path>
  <path d="M50.6467 14.4778H45.4615L41.9969 24.4737L38.6376 14.4778H33.4523L31.1465 30.6187H35.3719L36.718 19.4757L40.6625 30.6187H43.4483L47.3811 19.4757L48.7271 30.6187H52.9526L50.6467 14.4778Z" fill="white"></path>
  <path d="M60.362 30.9114C55.7503 30.9114 53.5381 29.4717 53.5381 26.8733C53.5381 23.7013 57.4826 22.9287 61.8017 22.7415V22.2616C61.8017 21.3018 61.0292 20.8219 59.4958 20.8219C58.0561 20.8219 56.4175 21.2081 55.364 21.5944L54.3106 19.1949C55.563 18.8086 57.7752 18.2351 60.0811 18.2351C64.0256 18.2351 66.0388 19.5812 66.0388 22.7532V30.057C64.8801 30.5369 62.6796 30.9231 60.3737 30.9231L60.362 30.9114ZM61.8017 25.141C59.4022 25.2346 57.5763 25.4336 57.5763 26.8733C57.5763 27.8331 58.536 28.4066 60.1747 28.4066C60.7483 28.4066 61.5208 28.313 61.8134 28.2193V25.141H61.8017Z" fill="white"></path>
  <path d="M13.5542 9C6.0631 9 0 15.0514 0 22.5542C0 30.0453 6.05139 36.1084 13.5542 36.1084C21.0453 36.1084 27.1084 30.057 27.1084 22.5542C27.1084 15.0631 21.057 9 13.5542 9ZM13.5542 34.9496C6.73027 34.9496 1.15878 29.3781 1.15878 22.5542C1.15878 15.7303 6.73027 10.1588 13.5542 10.1588C20.3781 10.1588 25.9496 15.7303 25.9496 22.5542C25.9496 29.3781 20.3781 34.9496 13.5542 34.9496Z" fill="white"></path>
  <path d="M8.18183 21.8752C7.22203 21.5826 6.35587 22.7414 5.87598 23.6075C6.06325 22.4605 7.51465 20.6345 8.18183 21.8752Z" fill="white"></path>
  <path d="M6.06299 21.9689C6.35561 20.8101 7.11642 20.4355 7.59632 20.8101C7.02278 20.9037 6.54289 21.1963 6.06299 21.9689Z" fill="white"></path>
  <path d="M8.55596 23.7014C9.03586 23.3151 9.03586 22.648 8.26334 22.449C7.68981 22.2617 6.43739 23.3151 6.34375 24.4622C6.73001 23.8887 8.1697 22.7299 8.55596 23.6897V23.7014Z" fill="white"></path>
  <path d="M16.2462 26.6861C16.3399 25.2464 14.9002 24.5675 14.6075 23.0342C14.3149 21.5009 16.8198 19.0897 15.2747 16.6902C18.2594 19.0897 15.9419 20.5294 17.3933 22.4607C16.8198 22.2734 16.2345 21.7935 16.0472 21.5009C15.2747 22.6479 18.1658 24.0993 16.2345 26.6861H16.2462Z" fill="white"></path>
  <path d="M11.5409 14.864C11.9272 14.864 12.5007 15.1566 12.2081 15.3439C11.342 16.1164 10.2885 15.8238 9.42236 16.5963C9.71498 15.7302 11.342 15.5429 11.5409 14.864Z" fill="white"></path>
  <path d="M14.1395 16.0112C14.5258 15.6249 14.1395 15.0514 12.7935 14.9578C14.2332 15.6249 11.9273 15.8239 11.8337 17.0763C11.0612 17.369 10.4876 16.8891 10.1014 17.2636C9.7151 17.5562 9.32884 17.3573 9.43418 16.971C8.95429 17.1583 9.04792 17.8372 9.52782 18.0244C9.62146 18.0244 9.7151 18.1181 9.62146 18.2117C9.14156 18.6916 8.95429 19.0779 9.43418 19.4641C9.7268 18.9842 9.82044 18.7969 10.1014 18.5043C10.394 18.6916 10.8739 18.598 11.5411 17.8372H11.6347C11.0612 19.6631 9.7151 19.9557 9.32884 19.8504C9.62146 20.2366 11.3421 20.5176 11.5411 19.7567C12.021 18.0244 13.7533 17.2636 12.3136 17.2636C12.6062 16.7837 13.8469 16.3038 14.1395 16.0112ZM10.4876 18.1298C10.394 18.1298 10.3003 17.9425 10.3003 17.7435C10.394 18.1298 10.7802 17.9308 10.593 17.4509C10.6866 17.4509 10.8856 17.4509 11.2601 17.4509C10.8739 17.6382 10.6866 18.1181 10.4876 18.1181V18.1298Z" fill="white"></path>
  <path d="M14.9004 15.0514C15.5676 15.5313 15.9538 15.8239 16.4337 16.3974C16.5274 15.6249 16.0475 14.1852 15.4739 13.799C15.1813 13.6117 14.8068 14.6651 14.9004 15.0514Z" fill="white"></path>
  <path d="M3.66355 21.0091C4.14344 19.8503 5.19688 18.4106 7.02283 17.3572C7.40909 16.3038 7.31545 15.5313 11.6345 13.8926C11.7282 13.2254 11.7282 12.4529 11.9272 12.4529C12.1144 12.4529 12.7933 12.7455 13.1796 13.4127C13.3668 13.4127 13.5658 13.4127 13.6595 13.319C13.7531 12.9328 14.0457 11.8793 14.3266 11.3994C14.6193 10.9195 15.2864 10.8259 16.059 11.4931C16.8315 12.1603 17.405 12.4529 18.5521 13.7989C19.5119 14.1852 20.9516 14.7587 22.204 16.2921C21.6305 15.9058 21.0452 15.8122 20.4717 15.7185C21.5251 16.5847 22.204 18.118 21.6305 20.3302C21.4432 18.317 19.8981 17.4508 19.032 16.772C19.5119 18.5043 17.3933 17.9307 16.7261 16.5847C16.9134 16.6783 17.206 16.6783 17.2997 16.5847C17.206 13.9862 15.9536 12.4529 15.4737 11.973C14.8065 11.3994 14.4203 12.8391 14.1277 13.8926C14.034 14.2788 13.7414 14.4661 13.3551 14.4661C13.4488 14.3725 13.5424 13.9862 13.5424 13.8926C12.489 13.9862 11.2366 14.6651 10.4641 14.946C8.54446 15.8122 8.06456 16.2921 7.6783 17.7318C6.14497 18.3989 4.41266 20.2249 3.64014 20.9974L3.66355 21.0091Z" fill="white"></path>
  <path d="M13.2733 20.6345C13.4606 20.8218 14.713 22.7531 13.2733 25.2462C13.6596 23.4203 12.6061 20.061 11.3537 21.7816C12.2199 22.1678 12.5125 22.835 12.2199 23.5139C11.8336 22.8467 10.9674 22.1678 10.1013 22.4605C9.71503 22.6477 9.14149 22.6477 8.6616 21.9806C8.08806 21.208 9.04786 20.1546 7.40918 20.2482C9.32877 19.2885 8.75523 21.208 9.71503 21.407C10.7685 21.6996 10.9674 21.0208 11.2484 20.5409C11.541 20.1546 12.1145 19.8737 12.6881 20.2482C12.9807 19.3821 12.5944 18.036 13.3552 17.3689C13.6479 17.0762 14.6076 17.1816 15.0875 17.5561C14.4204 17.5561 13.6479 18.4223 13.2616 20.6345H13.2733Z" fill="white"></path>
  <path d="M23.0702 17.3572C24.03 20.7164 23.7374 24.0874 22.7776 26.007C22.8712 24.7546 21.8178 23.0223 22.2977 20.9154C20.2844 22.9287 23.4565 27.7393 18.833 30.9114C19.5002 29.7526 19.7928 27.0722 19.6056 26.007C19.8982 26.1007 20.0855 26.3933 20.2727 26.6742C20.659 25.4218 20.7526 23.5958 19.9801 21.7699C20.2727 21.7699 20.7526 22.0625 21.0336 22.2498C21.1272 19.464 19.114 19.1714 18.7277 18.4106C18.7277 19.2768 19.6875 19.9439 19.8865 21.0091C19.2193 20.7164 18.7277 20.6228 18.3531 20.7164C18.833 21.1027 19.9918 23.3149 19.6992 25.1409C19.2193 24.7546 18.7394 24.5673 18.2595 24.4737C18.833 25.4335 19.1257 27.833 18.3531 28.9918C18.3531 28.6991 18.2595 28.032 17.9669 27.7393C17.5806 29.0854 16.5272 29.6589 15.8483 29.8579C16.7145 28.8981 16.6208 27.2594 15.2748 26.7795C14.116 26.3933 12.5827 27.1658 11.9155 30.0452C11.0493 30.3378 8.45086 29.7526 9.9959 28.032C10.9557 28.3246 13.3552 26.7795 13.1679 25.6325C12.9806 24.0991 11.5292 23.5139 10.3822 23.5139C8.94247 23.5139 8.07631 24.86 6.91753 25.4335C5.95774 25.2462 5.66511 25.1409 5.18522 23.9002C5.09158 23.1276 5.95774 22.5541 5.95774 21.7816C5.29056 21.9689 5.09158 20.9154 3.74552 21.9689C3.65188 21.7816 3.83916 21.3017 3.83916 21.3017C3.35926 21.7816 3.26562 22.2615 3.26562 22.3551C3.4529 22.835 3.83916 23.2213 4.51804 23.7012C5.29056 25.8198 6.15672 26.007 6.91753 26.1007C7.01117 26.2879 7.69005 27.0605 8.45086 27.1541C8.35723 26.7678 8.26359 25.6208 8.35723 25.4218C10.0895 23.6895 11.342 24.7546 11.4356 25.2345C9.90226 25.5271 10.9557 28.7928 8.45086 27.3531C8.35723 27.6457 8.45086 28.5119 8.83712 28.9918C9.12974 31.204 11.9155 30.6304 12.7816 31.005C12.688 28.8864 13.8351 27.2594 14.9002 27.4467C15.9537 27.5404 16.1526 29.2727 14.4203 30.806C14.8066 30.9933 16.7262 30.7124 17.686 30.0335C17.7796 30.607 17.1124 32.1521 16.2463 33.2991C23.1638 31.4732 26.5231 23.5022 23.0702 17.3455V17.3572ZM4.51804 23.3149C4.13178 23.0223 3.65188 22.5424 3.55825 22.2615C3.65188 22.1678 3.94451 21.8752 4.33076 21.7816C4.62339 21.6879 4.81066 21.8752 4.71702 21.9689C4.71702 22.0625 4.4244 22.0625 4.33076 22.2615C4.23713 22.5541 4.51804 22.6477 4.62339 22.835C4.71702 22.9287 4.81066 23.1276 4.52975 23.3149H4.51804ZM6.91753 25.7144C7.01117 25.5271 7.39743 25.2345 7.49107 25.2345C7.39743 25.808 7.58471 26.4869 7.58471 26.4869C7.58471 26.4869 7.01117 26.1007 6.91753 25.7144ZM10.7567 26.2879C10.944 26.2879 11.143 26.4752 11.2366 26.3816C11.4239 26.2879 11.2366 25.7144 11.143 25.6091C11.3303 25.6091 12.0091 25.6091 11.9155 25.9017C11.8219 26.4752 11.4356 26.7678 10.4758 27.1541C10.6631 26.9668 10.6631 26.5806 10.7684 26.2879H10.7567ZM8.83712 28.4065C8.74348 28.3129 8.45086 28.0203 8.5445 27.634C8.83712 27.8213 9.31702 27.9266 9.31702 27.9266C9.31702 27.9266 9.12974 28.3129 8.83712 28.4065Z" fill="white"></path>
  <path d="M165.456 12C171.782 12 176.911 16.95 176.911 23.0553C176.911 29.1606 171.782 34.1106 165.456 34.1106C159.129 34.1106 154 29.1606 154 23.0553C154 16.95 159.129 12 165.456 12Z" fill="#00AED6"></path>
  <path fill-rule="evenodd" clip-rule="evenodd" d="M172.138 22.715C172.05 21.3073 170.81 20.2284 169.35 20.2919H162.114C161.85 20.2919 161.637 20.0856 161.637 19.8304C161.637 19.5765 161.85 19.3703 162.114 19.3703H169.446C169.404 18.4169 168.729 17.5977 167.775 17.3438C165.638 16.9746 163.45 16.9746 161.312 17.3438C160.098 17.6323 159.189 18.6073 159.022 19.803C158.687 21.9722 158.687 24.176 159.022 26.3438C159.277 27.6102 160.319 28.5895 161.637 28.8044C164.286 29.126 166.968 29.126 169.617 28.8044C170.798 28.5736 171.691 27.6376 171.833 26.4823C172.075 25.2405 172.177 23.977 172.138 22.715ZM169.751 24.2626V24.6679C169.751 24.9217 169.538 25.128 169.274 25.128C169.01 25.128 168.796 24.9217 168.796 24.6679V24.2626C168.642 24.1328 168.556 23.9438 168.558 23.7462C168.558 23.364 168.879 23.0554 169.274 23.0554C169.669 23.0554 169.989 23.364 169.989 23.7462C169.988 23.9424 169.901 24.1299 169.751 24.2626Z" fill="white"></path>
  <path d="M209.541 21.8121C209.556 19.8736 207.941 18.29 205.932 18.2741C203.923 18.2597 202.283 19.8174 202.267 21.7558C202.251 23.6943 203.867 25.2794 205.876 25.2938C205.894 25.2938 205.913 25.2938 205.932 25.2938C207.837 25.3933 209.466 23.9813 209.568 22.1424C209.574 22.0328 209.574 21.9217 209.569 21.8121H209.541ZM198.735 21.8121C198.735 18.127 201.751 15.3174 205.932 15.3174C210.113 15.3174 213.131 18.1443 213.131 21.8121C213.131 25.4784 210.142 28.3155 205.932 28.3155C201.722 28.3155 198.735 25.4871 198.735 21.8121Z" fill="white"></path>
  <path d="M193.006 22.4842C193.006 24.0044 191.402 25.2477 189.37 25.2477C187.502 25.4309 185.835 24.1169 185.646 22.3141C185.627 22.1323 185.624 21.9492 185.637 21.766C185.637 19.7568 187.165 18.3751 189.513 18.3751C191.422 18.3751 193.006 19.6371 193.006 21.065V22.4842ZM193.149 15.3073V16.7626C191.988 15.7443 190.449 15.2237 188.882 15.3174C185.178 15.3492 182.204 18.2742 182.238 21.8482C182.272 25.4222 185.302 28.2939 189.006 28.2607C190.531 28.327 192.015 27.7761 193.101 26.7405V27.9838C193.101 29.6698 191.594 30.9044 189.608 30.9044C188.092 31.0097 186.598 30.5035 185.484 29.504L183.164 31.6602C184.903 33.3073 187.267 34.1929 189.703 34.1107C193.77 34.1107 196.557 31.4756 196.557 27.9665V15.3073H193.149Z" fill="white"></path>
  <path d="M215.23 15.6853H218.647V16.7728H218.695C219.816 15.7862 221.295 15.2699 222.81 15.3348C226.53 15.4704 229.431 18.4906 229.292 22.079C229.159 25.48 226.333 28.206 222.81 28.3343C221.363 28.366 219.951 27.9074 218.819 27.0348V33.1891H215.259L215.23 15.6853ZM222.256 18.3752C220.346 18.3752 218.792 19.656 218.792 21.0478V22.604C218.792 24.0867 220.328 25.3127 222.275 25.3127C224.261 25.4108 225.953 23.9382 226.055 22.0228C226.157 20.1074 224.631 18.4747 222.645 18.3752C222.523 18.3694 222.399 18.3694 222.275 18.3752H222.256Z" fill="white"></path>
  <path d="M236.127 20.6235C238.466 20.3192 239.163 19.9961 239.163 19.3702C239.163 18.5596 238.276 18.0706 236.9 18.0706C235.419 17.9538 234.07 18.8971 233.721 20.2918L230.362 19.6182C230.839 17.1129 233.512 15.3259 236.805 15.3259C240.529 15.3259 242.838 17.1678 242.838 20.1533V27.975H239.64V26.612H239.593C238.508 27.7903 236.917 28.4163 235.287 28.3067C232.47 28.3067 230.513 26.8226 230.513 24.6216C230.513 22.4192 232.117 21.1572 236.127 20.6235ZM239.45 21.9216H239.402C239.086 22.3644 238.447 22.6226 236.681 22.9168C234.591 23.2947 233.818 23.6913 233.818 24.4096C233.818 25.1278 234.438 25.4783 235.783 25.4783C237.836 25.4783 239.421 24.5567 239.421 23.387L239.45 21.9216Z" fill="white"></path>
  <path d="M249.281 27.2841L243.391 15.6851H247.316L251.181 23.7187H251.239L255.056 15.6851H259L250.179 33.1889H246.256L249.281 27.2841Z" fill="white"></path>
</svg>
