<?xml version="1.0" encoding="UTF-8"?>
<svg xmlns="http://www.w3.org/2000/svg" width="298" height="45" viewBox="0 0 298 45" fill="none">
  <path fill-rule="evenodd" clip-rule="evenodd" d="M116.797 5.28246C116.797 2.91727 118.711 1 121.071 1H142.324C144.684 1 146.597 2.91727 146.597 5.28246V26.5831C146.597 28.9483 144.684 30.8656 142.324 30.8656H121.071C118.711 30.8656 116.797 28.9483 116.797 26.5831V5.28246ZM121.996 27.9392C120.738 27.9392 119.717 26.9166 119.717 25.6553V6.21741C119.717 4.956 120.738 3.93359 121.996 3.93359H124.596C128.021 3.93359 130.557 7.4118 128.366 9.61045L122.011 15.9889L127.465 21.7158C130.11 24.4922 127.013 27.9392 124.079 27.9392H121.996ZM130.244 3.93349L132.441 3.93359C135.866 3.93359 138.403 7.4118 136.212 9.61045L129.856 15.9889L141.54 27.9344L129.21 27.9322C131.86 27.9322 133.532 23.4655 130.697 20.5068L126.367 15.9889L131.407 10.7813C134.122 7.97705 132.151 4.36935 130.244 3.93349ZM143.674 25.6553L134.212 15.9889L139.253 10.7813C141.967 7.97705 139.997 4.36935 138.09 3.93349L141.391 3.93359C142.65 3.93359 143.67 4.956 143.67 6.21741L143.674 25.6553ZM108.929 39.8925V41.6331H109.704C110.107 41.6331 110.412 41.5575 110.62 41.4063C110.828 41.2554 110.932 41.0355 110.932 40.7472C110.932 40.4623 110.836 40.2486 110.646 40.1061C110.455 39.9637 110.171 39.8925 109.793 39.8925H108.929ZM108.929 36.9238V38.5789H109.527C109.944 38.5789 110.255 38.5085 110.462 38.3674C110.668 38.2266 110.772 38.0116 110.772 37.7228C110.772 37.4617 110.675 37.2633 110.48 37.1274C110.286 36.9917 109.999 36.9238 109.621 36.9238H108.929ZM107 35.5889H110.027C110.922 35.5889 111.595 35.7498 112.045 36.0717C112.496 36.3934 112.722 36.8725 112.722 37.509C112.722 37.9369 112.604 38.2924 112.368 38.5759C112.132 38.8593 111.788 39.0635 111.337 39.1888C111.844 39.2827 112.233 39.4817 112.505 39.786C112.777 40.0899 112.913 40.4785 112.913 40.9509C112.913 41.6461 112.666 42.1615 112.17 42.4968C111.674 42.8323 110.909 43 109.876 43H107V35.5889ZM117.136 37.2417L116.179 40.0207H118.062L117.136 37.2417ZM115.986 35.5889H118.364L121.163 43H119.056L118.53 41.4302H115.684L115.133 43H113.183L115.986 35.5889ZM121.59 35.5889H124.05L126.192 40.0325C126.265 40.1819 126.35 40.3897 126.447 40.6557C126.544 40.9216 126.651 41.2476 126.769 41.6337C126.706 41.2685 126.661 40.933 126.631 40.6271C126.602 40.3212 126.587 40.0412 126.587 39.7874V35.5889H128.366V43H125.916L123.691 38.3947C123.587 38.1827 123.492 37.9523 123.405 37.7038C123.319 37.4552 123.239 37.185 123.166 36.8927C123.235 37.3343 123.287 37.7403 123.319 38.1106C123.353 38.4808 123.369 38.8067 123.369 39.0885V43H121.59V35.5889ZM129.766 35.5889H131.737V38.7912L134.027 35.5889H136.234L133.517 38.9946L136.511 43H134.061L131.737 39.563V43H129.766V35.5889ZM142.247 39.8925V41.6331H143.023C143.425 41.6331 143.73 41.5575 143.938 41.4063C144.146 41.2554 144.25 41.0355 144.25 40.7472C144.25 40.4623 144.155 40.2486 143.964 40.1061C143.773 39.9637 143.489 39.8925 143.111 39.8925H142.247ZM142.247 36.9238V38.5789H142.846C143.262 38.5789 143.574 38.5085 143.78 38.3674C143.987 38.2266 144.09 38.0116 144.09 37.7228C144.09 37.4617 143.993 37.2633 143.799 37.1274C143.604 36.9917 143.318 36.9238 142.94 36.9238H142.247ZM140.318 35.5889H143.346C144.24 35.5889 144.913 35.7498 145.364 36.0717C145.815 36.3934 146.04 36.8725 146.04 37.509C146.04 37.9369 145.922 38.2924 145.686 38.5759C145.45 38.8593 145.107 39.0635 144.656 39.1888C145.162 39.2827 145.551 39.4817 145.824 39.786C146.096 40.0899 146.232 40.4785 146.232 40.9509C146.232 41.6461 145.984 42.1615 145.488 42.4968C144.992 42.8323 144.228 43 143.195 43H140.318V35.5889ZM149.325 36.8918V38.7926H150.016C150.443 38.7926 150.763 38.7151 150.976 38.5602C151.189 38.4052 151.296 38.1729 151.296 37.863C151.296 37.5289 151.177 37.2835 150.94 37.1268C150.702 36.9702 150.327 36.8918 149.814 36.8918H149.325ZM147.396 35.5889H150.334C151.313 35.5889 152.039 35.7481 152.513 36.0664C152.987 36.3846 153.224 36.8689 153.224 37.5191C153.224 37.9992 153.099 38.3938 152.849 38.7035C152.599 39.0129 152.238 39.2198 151.765 39.3242C152.154 39.4667 152.467 39.8716 152.703 40.5389L153.587 43H151.53L150.88 40.9716C150.776 40.6449 150.634 40.4189 150.453 40.2938C150.273 40.1686 149.992 40.1061 149.611 40.1061H149.325V43H147.396V35.5889ZM154.397 35.5889H156.368V43H154.397V35.5889Z" fill="white"></path>
  <path d="M220.818 1H178.273C176.468 1 175 2.46782 175 4.27273V33.7273C175 35.5322 176.468 37 178.273 37H220.818C222.623 37 224.091 35.5322 224.091 33.7273V4.27273C224.091 2.46782 222.623 1 220.818 1ZM222.455 33.7273C222.455 34.6289 221.72 35.3636 220.818 35.3636H178.273C177.371 35.3636 176.636 34.6289 176.636 33.7273V4.27273C176.636 3.37109 177.371 2.63636 178.273 2.63636H220.818C221.72 2.63636 222.455 3.37109 222.455 4.27273V33.7273Z" fill="white"></path>
  <path d="M187.562 17.7992C187.608 17.851 187.668 17.8872 187.735 17.9028C187.802 17.9184 187.872 17.9125 187.935 17.8859C187.997 17.8623 188.049 17.8174 188.081 17.7592C188.113 17.701 188.123 17.6333 188.109 17.5684L187.595 15.3299C187.594 15.3249 187.593 15.32 187.592 15.3152C187.407 14.677 186.823 14.5804 186.399 14.5641H186.389L183.496 14.5608C183.347 14.5608 183.218 14.659 183.193 14.7948C183.182 14.8625 183.196 14.932 183.232 14.9902C183.269 15.0483 183.325 15.0912 183.391 15.1106C185.155 15.6964 186.597 16.6259 187.562 17.7992ZM213.512 14.587H211.63C210.877 14.587 210.445 14.8177 210.185 15.361L206.286 23.5117C206.265 23.5546 206.256 23.6023 206.26 23.6498C206.264 23.6974 206.281 23.7429 206.308 23.7817C206.366 23.8635 206.462 23.911 206.567 23.911H208.776C208.837 23.9121 208.896 23.8953 208.948 23.8627C208.999 23.8301 209.039 23.7831 209.064 23.7277C209.334 23.0666 209.509 22.6461 209.566 22.5102H211.16L213.096 22.5135C213.16 22.7606 213.315 23.4168 213.379 23.6868C213.41 23.8177 213.535 23.911 213.68 23.911H215.606C215.7 23.911 215.786 23.8717 215.845 23.8046C215.904 23.7375 215.927 23.6492 215.907 23.5657L213.813 14.8095C213.795 14.744 213.755 14.6865 213.701 14.6461C213.646 14.6058 213.58 14.5849 213.512 14.587ZM210.36 20.6006L211.825 17.1021L212.011 17.9072L212.649 20.6006H210.36Z" fill="white"></path>
  <path d="M194.336 14.7127C194.306 14.6726 194.267 14.6402 194.223 14.618C194.178 14.5958 194.129 14.5845 194.079 14.585H191.837C191.777 14.5838 191.718 14.6001 191.667 14.6321C191.616 14.6641 191.576 14.7103 191.551 14.765L188.928 20.9472L188.646 20.0063C188.642 19.9933 188.637 19.9808 188.631 19.9687C188.217 19.0818 187.105 17.6941 185.553 16.5945C185.447 16.5192 185.301 16.5159 185.192 16.5847C185.082 16.6534 185.033 16.781 185.071 16.8988L187.224 23.6963C187.246 23.7567 187.286 23.8089 187.339 23.8453C187.391 23.8817 187.454 23.9005 187.519 23.8992L190.003 23.8959C190.061 23.897 190.119 23.8816 190.169 23.8515C190.219 23.8214 190.259 23.7778 190.286 23.7258L194.36 14.981C194.38 14.938 194.388 14.8905 194.384 14.8433C194.379 14.7961 194.362 14.751 194.334 14.7127H194.336ZM198.054 14.5768H195.921C195.851 14.5744 195.782 14.5966 195.727 14.6397C195.671 14.6827 195.632 14.7438 195.617 14.8125L193.999 23.5752C193.991 23.6164 193.994 23.6586 194.006 23.6987C194.018 23.7387 194.039 23.7754 194.067 23.8059C194.126 23.8714 194.211 23.9074 194.303 23.9074H196.434C196.584 23.9074 196.712 23.8076 196.738 23.6701L198.358 14.909C198.365 14.8679 198.363 14.8256 198.351 14.7855C198.339 14.7455 198.318 14.7087 198.289 14.6783C198.259 14.646 198.223 14.6203 198.182 14.6028C198.141 14.5854 198.098 14.5765 198.054 14.5768ZM203.958 16.4668H204.039C204.874 16.4668 205.463 16.6419 205.834 16.7728C205.877 16.7879 205.922 16.794 205.967 16.7909C206.012 16.7878 206.056 16.7756 206.096 16.7548C206.135 16.7353 206.169 16.7072 206.195 16.6726C206.222 16.638 206.24 16.5979 206.248 16.5552L206.497 15.2036C206.523 15.0645 206.433 14.9287 206.288 14.8861C205.596 14.6864 204.88 14.5861 204.16 14.5883C201.531 14.5883 199.685 15.809 199.67 17.5567C199.654 18.8494 200.991 19.571 201.997 20.0014C203.031 20.4416 203.378 20.723 203.373 21.1174C203.367 21.7212 202.545 21.9945 201.786 21.9945C200.932 22.0176 200.083 21.8586 199.296 21.5281C199.253 21.5116 199.207 21.5043 199.161 21.5065C199.115 21.5088 199.07 21.5206 199.029 21.5412C198.989 21.5605 198.954 21.5887 198.928 21.6236C198.901 21.6586 198.882 21.6992 198.873 21.7425L198.61 23.1661C198.599 23.2342 198.614 23.3039 198.651 23.3621C198.688 23.4202 198.745 23.4628 198.811 23.4819C199.538 23.7176 200.552 23.8632 201.528 23.8747C204.318 23.873 206.136 22.6654 206.155 20.7983C206.165 19.7723 205.456 18.9983 203.93 18.3601C202.997 17.9412 202.424 17.663 202.429 17.2376C202.429 16.8547 202.953 16.4685 203.958 16.4685V16.4668Z" fill="white"></path>
  <path d="M275.056 34.938H258.429V5.05859H275.056V34.938Z" fill="#FF5F00"></path>
  <path d="M259.485 20C259.482 17.1226 260.135 14.2823 261.392 11.6942C262.649 9.1061 264.479 6.83797 266.743 5.06155C263.94 2.85864 260.573 1.48875 257.029 1.10844C253.484 0.728123 249.904 1.35273 246.697 2.91088C243.49 4.46903 240.787 6.89785 238.895 9.91979C237.004 12.9417 236 16.4349 236 20C236.001 23.5647 237.004 27.0573 238.896 30.0788C240.787 33.1003 243.49 35.5288 246.696 37.0868C249.903 38.6449 253.482 39.2697 257.027 38.8898C260.571 38.5099 263.937 37.1406 266.74 34.9384C264.477 33.1615 262.648 30.8932 261.391 28.3052C260.134 25.7171 259.483 22.8771 259.485 20Z" fill="#EB001B"></path>
  <path d="M297.485 20C297.485 23.5651 296.482 27.0583 294.59 30.0802C292.699 33.1021 289.995 35.531 286.789 37.0891C283.582 38.6473 280.002 39.2719 276.457 38.8916C272.912 38.5113 269.546 37.1414 266.743 34.9384C271.162 31.4594 274.001 26.0615 274.001 20C274.001 13.9385 271.162 8.54061 266.743 5.06155C269.546 2.85864 272.912 1.48875 276.457 1.10844C280.002 0.728123 283.582 1.35273 286.789 2.91088C289.995 4.46902 292.699 6.89785 294.59 9.91979C296.482 12.9417 297.485 16.4349 297.485 20Z" fill="#F79E1B"></path>
  <path d="M24.944 30.8013C22.3219 33.3229 18.806 34.6907 15.004 34.6907C11.1544 34.6907 7.63847 33.3229 5.0045 30.8013C-0.227679 25.7344 -0.346863 17.3846 4.73038 12.163C4.82573 12.0678 4.92107 11.9727 5.01642 11.8775C7.63847 9.35595 11.1544 8 15.004 8C18.806 8 22.3219 9.36784 24.944 11.8894C30.1762 16.9445 30.3073 25.2586 25.2539 30.4802C25.1585 30.5872 25.0513 30.6943 24.944 30.8013ZM15.016 12.3176C9.9864 12.3176 6.19634 16.1952 6.19634 21.3335C6.19634 26.4718 9.99831 30.3612 15.016 30.3612C19.9859 30.3612 23.776 26.4718 23.776 21.3335C23.776 16.1952 19.974 12.3176 15.016 12.3176ZM57.9699 11.1163L47.1957 35L46.5878 34.8811C43.5129 34.3339 42.905 33.5608 41.4629 30.4564L33.418 12.9837H30.4026V8.72555H41.8443V12.9837H39.1031L45.5748 27.4709L51.8438 12.9837H48.4948V8.72555H57.9937L57.9699 11.1163ZM83.9878 30.8013C81.3657 33.3229 77.8498 34.6907 74.0478 34.6907C70.1982 34.6907 66.6823 33.3229 64.0602 30.8013C58.828 25.7463 58.685 17.4084 63.7622 12.1868C63.8576 12.0797 63.9649 11.9846 64.0602 11.8894C66.6823 9.36784 70.1982 8.01189 74.0478 8.01189C77.8498 8.01189 81.3657 9.37973 83.9878 11.9013C89.22 16.9564 89.3511 25.2943 84.2857 30.5159C84.1904 30.5991 84.0831 30.6943 83.9878 30.8013ZM74.0478 12.3176C69.0183 12.3176 65.2282 16.1952 65.2282 21.3335C65.2282 26.4718 69.0302 30.3612 74.0478 30.3612C79.0178 30.3612 82.8079 26.4718 82.8079 21.3335C82.8079 16.1952 79.0178 12.3176 74.0478 12.3176Z" fill="white"></path>
</svg>
