<?xml version="1.0" encoding="UTF-8"?>
<svg xmlns:xlink="http://www.w3.org/1999/xlink" xmlns="http://www.w3.org/2000/svg" class="svg-icon " width="64" height="64" fill="none" viewBox="0 0 64 64">
  <path stroke="#17191C" stroke-dasharray="4 4" stroke-linecap="round" stroke-linejoin="round" stroke-width="2px" d="M39 1.5V21L21.5 31.1V42L5 51.5V21.2L39 1.5Z" fill="none"></path>
  <path fill="#056CEA" stroke="#056CEA" stroke-linecap="round" stroke-linejoin="round" stroke-width="2px" d="M12 55.33L15 57L21.5625 31.125L49 7L46 5.32996L12 24.93V55.33Z"></path>
  <path fill="#0199FF" stroke="#0199FF" stroke-linecap="round" stroke-linejoin="round" stroke-width="2px" d="M49 7V18.5L25 32V51.2424L15 57V26.7L49 7Z"></path>
  <path stroke="#17191C" stroke-linecap="round" stroke-linejoin="round" stroke-width="2px" d="M58.8 22.1L25.2 41.5M25 63L59 43.4V13L25 32.6V63Z" fill="none"></path>
  <path fill="#056CEA" d="M30.3232 34.298C30.3232 35.0388 29.8031 35.9397 29.1616 36.3101C28.52 36.6805 28 36.3803 28 35.6395C28 34.8987 28.5201 33.9978 29.1616 33.6274C29.8032 33.257 30.3232 33.5572 30.3232 34.298Z"></path>
  <path fill="#056CEA" d="M33.3232 32.4543C33.3232 33.1951 32.8031 34.0959 32.1616 34.4663C31.52 34.8368 31 34.5365 31 33.7957C31 33.0549 31.5201 32.1541 32.1616 31.7837C32.8032 31.4132 33.3232 31.7135 33.3232 32.4543Z"></path>
  <path fill="#056CEA" d="M36.3232 30.798C36.3232 31.5388 35.8031 32.4397 35.1616 32.8101C34.52 33.1805 34 32.8803 34 32.1395C34 31.3987 34.5201 30.4978 35.1616 30.1274C35.8032 29.757 36.3232 30.0572 36.3232 30.798Z"></path>
  <path stroke="#056CEA" stroke-linecap="round" stroke-linejoin="round" stroke-width="2px" d="M39.0003 40.1578L35.6879 45.8952L39.0001 47.8075" fill="none"></path>
  <path stroke="#056CEA" stroke-linecap="round" stroke-linejoin="round" stroke-width="2px" d="M48.1071 34.8814L51.4193 36.7937L48.1068 42.5311" fill="none"></path>
  <path stroke="#056CEA" stroke-linecap="round" stroke-linejoin="round" stroke-width="2px" d="M45.67 34.1988L41.4371 48.5421" fill="none"></path>
</svg>
