<?xml version="1.0" encoding="UTF-8"?>
<svg xmlns="http://www.w3.org/2000/svg" width="173" height="134" viewBox="0 0 173 134" fill="none">
  <path d="M7.81 84.44C6.16 84.44 4.80333 83.9633 3.74 83.01C2.71333 82.02 2.2 80.81 2.2 79.38C2.2 77.9133 2.71333 76.685 3.74 75.695C4.80333 74.705 6.16 74.21 7.81 74.21C9.42333 74.21 10.7433 74.705 11.77 75.695C12.8333 76.685 13.365 77.9133 13.365 79.38C13.365 80.81 12.8333 82.02 11.77 83.01C10.7433 83.9633 9.42333 84.44 7.81 84.44ZM17.3375 64.64C17.3375 60.8267 18.1625 57.435 19.8125 54.465C21.4625 51.4583 23.7541 49.13 26.6875 47.48C29.6575 45.7933 33.0125 44.95 36.7525 44.95C41.3358 44.95 45.2591 46.16 48.5225 48.58C51.7858 51 53.9675 54.3 55.0675 58.48H44.7275C43.9575 56.8667 42.8575 55.6383 41.4275 54.795C40.0341 53.9517 38.4391 53.53 36.6425 53.53C33.7458 53.53 31.3991 54.5383 29.6025 56.555C27.8058 58.5717 26.9075 61.2667 26.9075 64.64C26.9075 68.0133 27.8058 70.7083 29.6025 72.725C31.3991 74.7417 33.7458 75.75 36.6425 75.75C38.4391 75.75 40.0341 75.3283 41.4275 74.485C42.8575 73.6417 43.9575 72.4133 44.7275 70.8H55.0675C53.9675 74.98 51.7858 78.28 48.5225 80.7C45.2591 83.0833 41.3358 84.275 36.7525 84.275C33.0125 84.275 29.6575 83.45 26.6875 81.8C23.7541 80.1133 21.4625 77.785 19.8125 74.815C18.1625 71.845 17.3375 68.4533 17.3375 64.64ZM79.087 84.385C75.457 84.385 72.1203 83.5417 69.077 81.855C66.0703 80.1683 63.6687 77.8217 61.872 74.815C60.112 71.7717 59.232 68.3617 59.232 64.585C59.232 60.8083 60.112 57.4167 61.872 54.41C63.6687 51.4033 66.0703 49.0567 69.077 47.37C72.1203 45.6833 75.457 44.84 79.087 44.84C82.717 44.84 86.0353 45.6833 89.042 47.37C92.0853 49.0567 94.4687 51.4033 96.192 54.41C97.952 57.4167 98.832 60.8083 98.832 64.585C98.832 68.3617 97.952 71.7717 96.192 74.815C94.432 77.8217 92.0487 80.1683 89.042 81.855C86.0353 83.5417 82.717 84.385 79.087 84.385ZM79.087 75.805C82.167 75.805 84.6237 74.7783 86.457 72.725C88.327 70.6717 89.262 67.9583 89.262 64.585C89.262 61.175 88.327 58.4617 86.457 56.445C84.6237 54.3917 82.167 53.365 79.087 53.365C75.9703 53.365 73.477 54.3733 71.607 56.39C69.7737 58.4067 68.857 61.1383 68.857 64.585C68.857 67.995 69.7737 70.7267 71.607 72.78C73.477 74.7967 75.9703 75.805 79.087 75.805ZM108.464 84.44C106.814 84.44 105.458 83.9633 104.394 83.01C103.368 82.02 102.854 80.81 102.854 79.38C102.854 77.9133 103.368 76.685 104.394 75.695C105.458 74.705 106.814 74.21 108.464 74.21C110.078 74.21 111.398 74.705 112.424 75.695C113.488 76.685 114.019 77.9133 114.019 79.38C114.019 80.81 113.488 82.02 112.424 83.01C111.398 83.9633 110.078 84.44 108.464 84.44ZM128.992 45.39V84H119.587V45.39H128.992ZM150.272 45.39C154.342 45.39 157.899 46.1967 160.942 47.81C163.986 49.4233 166.332 51.6967 167.982 54.63C169.669 57.5267 170.512 60.8817 170.512 64.695C170.512 68.4717 169.669 71.8267 167.982 74.76C166.332 77.6933 163.967 79.9667 160.887 81.58C157.844 83.1933 154.306 84 150.272 84H135.807V45.39H150.272ZM149.667 75.86C153.224 75.86 155.992 74.8883 157.972 72.945C159.952 71.0017 160.942 68.2517 160.942 64.695C160.942 61.1383 159.952 58.37 157.972 56.39C155.992 54.41 153.224 53.42 149.667 53.42H145.212V75.86H149.667Z" fill="#FF0000"></path>
</svg>
