<?xml version="1.0" encoding="UTF-8"?>
<svg xmlns="http://www.w3.org/2000/svg" width="172" height="134" viewBox="0 0 172 134" fill="none">
  <path d="M65.9096 68.1396C63.8366 76.8595 56.1367 84 45.7387 84C34.0902 84 25.1729 74.8523 25.1729 63.4342C25.1729 52.1477 33.9915 43 45.4754 43C55.6432 43 63.9024 49.7127 65.8438 59.1236H54.1953C52.9778 56.4912 50.6745 53.7271 45.8703 53.7271C43.3695 53.5626 40.9016 54.5498 39.2234 56.4254C37.644 58.2351 36.7226 60.703 36.7226 63.5C36.7226 69.0939 40.408 73.2729 45.8703 73.2729C50.6416 73.2729 52.9449 70.5088 54.1953 68.1396H65.9096Z" fill="#1463A6"></path>
  <path d="M68.2129 63.4343C68.2129 54.0892 74.9256 43.0659 88.9103 43.0659C102.895 43.0659 109.608 54.0892 109.608 63.5001C109.608 72.911 102.895 83.9343 88.9103 83.9343C74.9256 83.9343 68.2129 72.911 68.2129 63.5001V63.4343ZM79.6968 63.5659C79.6968 69.094 83.9087 73.2072 88.9103 73.2072C93.9119 73.2072 98.1238 69.1269 98.1238 63.5001C98.1238 57.8733 93.9119 53.793 88.9103 53.793C83.9087 53.793 79.6968 57.8733 79.6968 63.5001V63.5659Z" fill="#1463A6"></path>
  <path d="M112.668 44.3162H123.395V48.3965C123.987 47.3435 124.777 46.4221 125.731 45.6982C127.442 44.3162 130.14 43 134.155 43C136.787 43 140.111 43.691 142.941 46.6854C143.862 47.6396 144.619 48.6926 145.211 49.8772C145.968 48.6597 146.922 47.5409 147.975 46.5538C150.311 44.4478 153.404 43 157.419 43C160.117 43 164.428 43.6252 167.521 46.8828C171.107 50.6998 171.667 53.2665 171.667 61.756V82.7496H160.183V62.3483C160.183 60.7689 160.183 58.6958 159.426 56.9518C158.735 55.1421 157.287 53.8258 154.293 53.8258C151.101 53.8258 149.522 55.2737 148.765 57.0177C147.942 58.7616 147.942 60.703 147.942 61.7889V82.7825H136.425V61.8547C136.425 60.8018 136.425 58.7945 135.734 57.0835C134.977 55.2737 133.595 53.8258 130.667 53.8258C127.409 53.8258 125.83 55.3395 124.974 57.2151C124.119 59.0907 124.152 61.1637 124.152 62.3483V82.7825H112.635L112.668 44.3162Z" fill="#1463A6"></path>
  <path d="M0 63.7632C0 68.6332 3.94864 72.5818 8.81862 72.5818C13.6886 72.5818 17.6372 68.6332 17.6372 63.7632C17.6372 58.8932 13.6886 54.9446 8.81862 54.9446C3.94864 54.9446 0 58.8932 0 63.7632Z" fill="#83CFF3"></path>
  <mask id="mask0_215_109" style="mask-type:luminance" maskUnits="userSpaceOnUse" x="0" y="54" width="18" height="19">
    <path d="M0 63.7632C0 68.6332 3.94864 72.5818 8.81862 72.5818C13.6886 72.5818 17.6372 68.6332 17.6372 63.7632C17.6372 58.8932 13.6886 54.9446 8.81862 54.9446C3.94864 54.9446 0 58.8932 0 63.7632Z" fill="white"></path>
  </mask>
  <g mask="url(#mask0_215_109)">
    <path d="M17.6043 54.9446H0V72.5489H17.6043V54.9446Z" fill="#83CFF3"></path>
  </g>
</svg>
