<?xml version="1.0" encoding="UTF-8"?>
<svg xmlns="http://www.w3.org/2000/svg" width="56" height="57" viewBox="0 0 56 57" fill="none">
  <path d="M47.403 7.84099C47.393 7.83099 47.391 7.81799 47.382 7.80799C47.367 7.79199 47.347 7.78799 47.331 7.77299C42.1314 2.78528 35.2051 0.000366211 28 0.000366211C20.7949 0.000366211 13.8686 2.78528 8.66901 7.77299C8.65301 7.78699 8.63301 7.79299 8.61901 7.80799C8.60901 7.81799 8.60601 7.83099 8.59701 7.84099C4.5703 11.7113 1.79304 16.6974 0.622191 22.1584C-0.548656 27.6194 -0.0595851 33.3058 2.02654 38.4867C4.11267 43.6675 7.70053 48.1062 12.329 51.232C16.9574 54.3579 22.4149 56.0282 28 56.0282C33.5851 56.0282 39.0426 54.3579 43.6711 51.232C48.2995 48.1062 51.8874 43.6675 53.9735 38.4867C56.0596 33.3058 56.5487 27.6194 55.3778 22.1584C54.207 16.6974 51.4297 11.7113 47.403 7.84099ZM14.029 27C14.1416 22.744 15.0598 18.548 16.735 14.634C19.9767 16.06 23.4606 16.8549 27 16.976V27H14.029ZM32.865 2.463C37.4361 3.33503 41.6881 5.42134 45.175 8.503C43.6601 9.84154 41.9942 10.9987 40.211 11.951C38.4004 8.34214 35.9054 5.1197 32.865 2.463ZM38.412 12.823C35.4376 14.1251 32.2447 14.8554 29 14.976V2.03C33.0087 4.76362 36.2492 8.47967 38.412 12.823ZM27 2.03V14.976C23.7554 14.8554 20.5624 14.1251 17.588 12.823C19.7507 8.47965 22.9913 4.76359 27 2.03ZM15.789 11.951C14.0062 10.999 12.3406 9.84213 10.826 8.50399C14.3126 5.4225 18.5643 3.3362 23.135 2.464C20.0947 5.12039 17.5997 8.34249 15.789 11.951ZM29 16.977C32.5394 16.8559 36.0233 16.061 39.265 14.635C40.9401 18.5487 41.8583 22.7444 41.971 27H29V16.977ZM43.97 27C43.8562 22.4429 42.8701 17.9499 41.065 13.764C43.0687 12.7015 44.9357 11.3992 46.625 9.88599C51.1122 14.4821 53.732 20.5813 53.976 27H43.97ZM9.37501 9.88599C11.0646 11.3993 12.932 12.7015 14.936 13.764C13.1306 17.9498 12.1442 22.4429 12.03 27H2.02501C2.26874 20.5814 4.88816 14.4823 9.37501 9.88599ZM28 54C21.2806 53.9916 14.8248 51.3848 9.98345 46.7252C5.14211 42.0656 2.2904 35.7142 2.02501 29H53.975C53.7096 35.7142 50.8579 42.0656 46.0166 46.7252C41.1752 51.3848 34.7194 53.9916 28 54Z" fill="white"></path>
  <path d="M21.1634 34.013C20.9019 33.9718 20.6347 34.0352 20.4195 34.1894C20.2044 34.3435 20.0585 34.5762 20.0134 34.837L19.5194 37.825L18.8964 36.569C18.8042 36.4136 18.6732 36.2848 18.5162 36.1953C18.3592 36.1059 18.1816 36.0588 18.0009 36.0588C17.8202 36.0588 17.6426 36.1059 17.4856 36.1953C17.3285 36.2848 17.1975 36.4136 17.1054 36.569L16.4814 37.825L15.9874 34.837C15.966 34.7074 15.9192 34.5833 15.8499 34.4717C15.7805 34.3601 15.6898 34.2634 15.583 34.1868C15.4762 34.1103 15.3554 34.0556 15.2275 34.0258C15.0995 33.9959 14.967 33.9916 14.8374 34.013C14.7078 34.0344 14.5836 34.0811 14.4721 34.1505C14.3605 34.2199 14.2637 34.3106 14.1872 34.4173C14.1107 34.5241 14.0559 34.645 14.0261 34.7729C13.9963 34.9008 13.992 35.0334 14.0134 35.163L15.0134 41.205C15.0479 41.4136 15.1476 41.6059 15.2983 41.7542C15.4489 41.9026 15.6427 41.9994 15.8518 42.0307C16.0609 42.0621 16.2745 42.0263 16.462 41.9286C16.6495 41.8309 16.8012 41.6763 16.8954 41.487L18.0004 39.263L19.1054 41.487C19.1882 41.6536 19.3158 41.7938 19.4739 41.8919C19.632 41.9899 19.8143 42.0419 20.0004 42.042C20.0499 42.0422 20.0994 42.0385 20.1484 42.031C20.3576 41.9998 20.5516 41.903 20.7023 41.7546C20.8531 41.6061 20.9529 41.4137 20.9874 41.205L21.9874 35.163C22.0088 35.0334 22.0045 34.9008 21.9747 34.7728C21.9449 34.6449 21.8902 34.5241 21.8137 34.4173C21.7371 34.3105 21.6403 34.2198 21.5287 34.1504C21.4172 34.0811 21.293 34.0344 21.1634 34.013ZM31.1634 34.013C30.9018 33.9713 30.6344 34.0344 30.4191 34.1887C30.2038 34.343 30.058 34.5759 30.0134 34.837L29.5194 37.825L28.8954 36.569C28.8032 36.4138 28.6722 36.2852 28.5153 36.1959C28.3583 36.1066 28.1809 36.0597 28.0004 36.0597C27.8198 36.0597 27.6424 36.1066 27.4855 36.1959C27.3286 36.2852 27.1976 36.4138 27.1054 36.569L26.4814 37.825L25.9874 34.837C25.9441 34.5752 25.7987 34.3414 25.583 34.1868C25.3674 34.0323 25.0991 33.9698 24.8374 34.013C24.5756 34.0562 24.3417 34.2017 24.1872 34.4173C24.0327 34.633 23.9701 34.9012 24.0134 35.163L25.0134 41.205C25.0479 41.4136 25.1476 41.6059 25.2983 41.7542C25.4489 41.9026 25.6427 41.9994 25.8518 42.0307C26.0609 42.0621 26.2745 42.0263 26.462 41.9286C26.6495 41.8309 26.8012 41.6763 26.8954 41.487L28.0004 39.263L29.1054 41.487C29.1882 41.6536 29.3158 41.7938 29.4739 41.8919C29.632 41.9899 29.8143 42.0419 30.0004 42.042C30.0499 42.0422 30.0994 42.0385 30.1484 42.031C30.3576 41.9998 30.5516 41.903 30.7023 41.7546C30.8531 41.6061 30.9529 41.4137 30.9874 41.205L31.9874 35.163C32.0088 35.0334 32.0045 34.9008 31.9747 34.7728C31.9449 34.6449 31.8902 34.5241 31.8137 34.4173C31.7371 34.3105 31.6403 34.2198 31.5287 34.1504C31.4172 34.0811 31.293 34.0344 31.1634 34.013ZM41.1634 34.013C40.9018 33.9713 40.6344 34.0344 40.4191 34.1887C40.2038 34.343 40.058 34.5759 40.0134 34.837L39.5194 37.825L38.8954 36.569C38.8032 36.4138 38.6722 36.2852 38.5153 36.1959C38.3583 36.1066 38.1809 36.0597 38.0004 36.0597C37.8198 36.0597 37.6424 36.1066 37.4855 36.1959C37.3286 36.2852 37.1976 36.4138 37.1054 36.569L36.4814 37.825L35.9874 34.837C35.9441 34.5752 35.7987 34.3414 35.583 34.1868C35.3674 34.0323 35.0991 33.9698 34.8374 34.013C34.5756 34.0562 34.3417 34.2017 34.1872 34.4173C34.0327 34.633 33.9701 34.9012 34.0134 35.163L35.0134 41.205C35.0476 41.4139 35.1473 41.6066 35.298 41.7552C35.4487 41.9039 35.6427 42.0009 35.8521 42.0323C36.0615 42.0636 36.2754 42.0277 36.463 41.9297C36.6507 41.8317 36.8024 41.6767 36.8964 41.487L38.0004 39.263L39.1054 41.487C39.1882 41.6536 39.3158 41.7938 39.4739 41.8919C39.632 41.9899 39.8143 42.0419 40.0004 42.042C40.0499 42.0422 40.0994 42.0385 40.1484 42.031C40.3576 41.9998 40.5516 41.903 40.7023 41.7546C40.8531 41.6061 40.9529 41.4137 40.9874 41.205L41.9874 35.163C42.0088 35.0334 42.0045 34.9008 41.9747 34.7728C41.9449 34.6449 41.8902 34.5241 41.8137 34.4173C41.7371 34.3105 41.6403 34.2198 41.5287 34.1504C41.4172 34.0811 41.293 34.0344 41.1634 34.013Z" fill="white"></path>
</svg>
