<?xml version="1.0" encoding="UTF-8"?>
<svg xmlns="http://www.w3.org/2000/svg" viewBox="0 0 64 64" id="hot-sale">
  <path fill="#faa307" d="M56 36.878C56 50.2 44.805 61 31 61c-21 .161-32.7-24.12-19.251-39.52a5.341 5.341 0 0 0 3.7 2.52 5.49 5.49 0 0 0 5.182-3c1.143-2.136.12-4.031 0-6-.166-2.743 1.354-6.727 9.086-12C29.721 3 56 23.477 56 36.878Z"></path>
  <circle cx="26" cy="34" r="3" fill="#fff"></circle>
  <circle cx="38" cy="46" r="3" fill="#fff"></circle>
  <path fill="#fff" d="M24.5 47.5a2.109 2.109 0 0 1 .009-2.991l12.077-11.923a2 2 0 0 1 2.828 2.828L27.491 47.491a2.109 2.109 0 0 1-2.991.009Z"></path>
</svg>
