<?xml version="1.0" encoding="UTF-8"?>
<svg xmlns="http://www.w3.org/2000/svg" width="172" height="134" viewBox="0 0 172 134" fill="none">
  <path d="M65.2234 27.4255C65.2234 28.8645 64.6518 30.2445 63.6343 31.2619C62.6168 32.2794 61.2368 32.8511 59.7979 32.8511C58.3589 32.8511 56.9789 32.2794 55.9614 31.2619C54.944 30.2445 54.3723 28.8645 54.3723 27.4255C54.3723 25.9866 54.944 24.6066 55.9614 23.5891C56.9789 22.5716 58.3589 22 59.7979 22C61.2368 22 62.6168 22.5716 63.6343 23.5891C64.6518 24.6066 65.2234 25.9866 65.2234 27.4255ZM49.8511 101.122C49.8511 102.561 49.2795 103.941 48.262 104.959C47.2445 105.976 45.8645 106.548 44.4255 106.548C42.9866 106.548 41.6066 105.976 40.5891 104.959C39.5716 103.941 39 102.561 39 101.122C39 99.6834 39.5716 98.3034 40.5891 97.2859C41.6066 96.2684 42.9866 95.6968 44.4255 95.6968C45.8645 95.6968 47.2445 96.2684 48.262 97.2859C49.2795 98.3034 49.8511 99.6834 49.8511 101.122Z" fill="#DB251C"></path>
  <path d="M65.1592 50.9363C65.1592 47.9398 62.7301 45.5107 59.7336 45.5107C56.7372 45.5107 54.3081 47.9398 54.3081 50.9363V101.575C54.3081 104.571 56.7372 107 59.7336 107C62.7301 107 65.1592 104.571 65.1592 101.575V50.9363Z" fill="#DB241C"></path>
  <path d="M117.218 27.4255V76.2553C117.218 92.4617 107.898 101.574 97.3247 101.574C86.7511 101.574 76.0747 92.5439 76.0747 76.2553C76.0747 59.9667 86.0772 50.9362 97.3247 50.9362H117.218V27.4255Z" stroke="#DB241C" stroke-width="12" stroke-linejoin="round"></path>
</svg>
