<?xml version="1.0" encoding="UTF-8"?>
<!-- Generator: Adobe Illustrator 23.0.5, SVG Export Plug-In . SVG Version: 6.00 Build 0)  -->
<svg xmlns="http://www.w3.org/2000/svg" xmlns:xlink="http://www.w3.org/1999/xlink" version="1.2" id="Layer_1" x="0px" y="0px" viewBox="0 0 375 84.9" xml:space="preserve">
<g>
	<g id="Layer_1-2">
		<path fill="#FFFFFF" d="M125.5,66.4c-2.8,1-5.7,1.6-8.7,2c-4.1,0.6-8.2,0.8-12.3,0.8c-3.4,0.1-6.7-0.4-9.9-1.5    c-2.5-0.9-4.7-2.4-6.3-4.3c-1.7-2.1-2.8-4.5-3.3-7.2c-0.7-3.3-1-6.6-1-10c0-7.3,1.7-12.8,5-16.4c3.3-3.6,8.1-5.4,14.3-5.5    c1.8,0,3.7,0.2,5.5,0.5c1.5,0.2,3,0.6,4.5,1V7.6h12.2V66.4z M113.3,59.2V34.4c-1.1-0.4-2.2-0.6-3.3-0.8c-1.5-0.3-3.1-0.4-4.7-0.4    c-1.7-0.1-3.3,0.3-4.8,1.1c-1.1,0.7-2.1,1.8-2.7,3c-0.6,1.3-1,2.7-1.2,4.2c-0.2,1.6-0.2,3.2-0.3,4.8c0,1.8,0.1,3.5,0.3,5.2    c0.1,1.5,0.5,3,1.1,4.5c0.6,1.3,1.5,2.4,2.7,3.2c1.4,0.9,3.1,1.3,4.8,1.2c1.6,0,3.2-0.1,4.7-0.4C111.1,59.9,112.2,59.6,113.3,59.2    z"></path>
		<path fill="#FFFFFF" d="M167.6,46.3V47c0,0.3,0,0.6,0,1s-0.1,0.7-0.1,1s-0.1,0.5-0.1,0.6l-27.3,0.1c0,1.4,0.1,2.8,0.4,4.2    c0.3,1.2,0.8,2.4,1.6,3.3c0.9,1,2.1,1.8,3.4,2.2c1.9,0.6,3.8,0.9,5.8,0.8c1.2,0,2.5-0.1,3.8-0.2s2.5-0.3,3.6-0.4s2.2-0.3,3.1-0.5    s1.7-0.4,2.3-0.5l0.5,8.5c-2.2,0.7-4.4,1.2-6.7,1.5c-3.8,0.5-7.7,0.8-11.5,0.7c-3,0.1-6.1-0.4-8.9-1.5c-2.3-0.9-4.3-2.4-5.7-4.4    c-1.5-2.2-2.5-4.6-2.9-7.2c-0.6-3.3-0.9-6.6-0.8-9.9c0-7,1.6-12.4,4.7-16.2s8.3-5.7,15.5-5.7c3.1-0.1,6.1,0.4,9,1.5    c2.3,0.9,4.4,2.3,5.9,4.2c1.6,2,2.7,4.3,3.2,6.8C167.3,40,167.7,43.1,167.6,46.3z M156.4,42.6c0-1.2-0.1-2.5-0.3-3.7    c-0.2-1.1-0.6-2.2-1.1-3.2c-0.6-1-1.4-1.8-2.4-2.3c-1.3-0.6-2.8-0.9-4.3-0.8c-1.5-0.1-2.9,0.2-4.3,0.9c-1,0.5-1.8,1.3-2.4,2.3    c-0.6,1-0.9,2.1-1.1,3.2c-0.2,1.2-0.3,2.4-0.3,3.7L156.4,42.6z"></path>
		<path fill="#FFFFFF" d="M237.5,25.4l-10.8,42.8h-16.6l-7.9-33.7l-7.9,33.7h-16.6l-10.8-42.8h13.2l7,33l7.4-33h15.9l7.8,33l6.6-33    H237.5z"></path>
		<path fill="#FFFFFF" d="M276,66.4c-2.9,0.8-5.8,1.4-8.8,1.9c-3.8,0.6-7.6,0.9-11.5,0.9c-3,0.1-6-0.2-8.9-0.8    c-2.1-0.4-4.1-1.2-5.8-2.4c-1.4-1-2.5-2.5-3.1-4.1c-0.7-1.9-1-3.9-0.9-5.9c0-1.9,0.3-3.8,1.1-5.5c0.8-1.7,2-3.2,3.6-4.3    c2-1.3,4.3-2.3,6.6-2.8c3.4-0.8,6.9-1.1,10.3-1h5.4v-3c0-0.9-0.1-1.8-0.5-2.7c-0.3-0.8-0.9-1.5-1.6-1.9c-1-0.6-2.1-1-3.3-1.2    c-1.8-0.3-3.6-0.4-5.5-0.4c-2.1,0-4.3,0.2-6.4,0.5c-1.8,0.2-3.5,0.6-5.2,1.2l-0.5-8.1c0.6-0.2,1.4-0.4,2.5-0.6s2.4-0.5,4-0.8    s3.2-0.5,5.1-0.6s3.8-0.3,5.8-0.3c2.8-0.1,5.6,0.2,8.4,0.8c2,0.4,3.8,1.2,5.4,2.4c1.4,1.1,2.4,2.5,3,4.2c0.7,2,1,4.1,0.9,6.2    L276,66.4z M263.9,59.8V49h-3.8c-1.9,0-3.9,0.1-5.8,0.5c-1.2,0.2-2.4,0.7-3.4,1.4c-0.7,0.5-1.3,1.2-1.6,2    c-0.3,0.8-0.4,1.7-0.4,2.5c0,0.7,0.1,1.5,0.3,2.2c0.2,0.7,0.6,1.3,1.2,1.7c0.7,0.5,1.5,0.9,2.3,1.1c1.2,0.3,2.5,0.4,3.8,0.4    c1.3,0,2.6-0.1,3.9-0.3C261.5,60.4,262.7,60.1,263.9,59.8L263.9,59.8z"></path>
		<path fill="#FFFFFF" d="M322.1,46.3c0.1,3.4-0.3,6.8-1.2,10.1c-0.7,2.7-2,5.1-3.9,7.2c-1.9,2-4.2,3.4-6.8,4.3    c-3.3,1-6.8,1.5-10.2,1.4c-3.8,0-7.6-0.2-11.4-0.8c-2.8-0.4-5.5-1-8.2-2V7.6h12.2V26c1.1-0.3,2.6-0.7,4.5-1    c2.1-0.4,4.2-0.6,6.3-0.5c6.7,0,11.4,1.8,14.3,5.5S322.1,39,322.1,46.3z M309.6,46.3c0-1.6-0.1-3.2-0.3-4.8    c-0.1-1.5-0.5-2.9-1.2-4.2c-0.6-1.2-1.5-2.3-2.7-3c-1.5-0.8-3.1-1.2-4.8-1.1c-1.7,0-3.3,0.1-5,0.4c-1,0.1-2,0.4-3,0.7v24.9    c1.1,0.4,2.2,0.7,3.3,0.8c1.6,0.3,3.2,0.4,4.8,0.4c1.7,0.1,3.4-0.3,4.9-1.2c1.2-0.8,2.1-1.9,2.6-3.2c0.6-1.4,1-3,1.1-4.5    C309.5,49.8,309.6,48.1,309.6,46.3z"></path>
		<path fill="#FFFFFF" d="M338,13.2c0.1,1.7-0.5,3.4-1.6,4.6c-1.1,1.1-2.9,1.6-5.6,1.6s-4.5-0.5-5.5-1.6c-1.1-1.3-1.6-3-1.5-4.6    c-0.1-1.7,0.5-3.3,1.6-4.5c1.1-1,2.9-1.5,5.6-1.6c2.6,0,4.4,0.5,5.5,1.6C337.6,10,338.1,11.6,338,13.2z M337,68.2h-12.2V25.4H337    V68.2z"></path>
		<path fill="#FFFFFF" d="M375,68.2h-35.9v-8.8l20.5-25.5h-19.7v-8.5h34.4v8.8L354,59.7h21V68.2z"></path>
		<path fill="#FFFFFF" d="M70.4,42.5c4.4-3,7-8,7-13.4c0-6.8-3.4-11.4-10-15L49.2,3.5C44.8,1,43,0,39.2,0C30.9,0,24,6.2,23,14.3    c-8.2-3.7-17.8-0.1-21.6,8.1c-1,2.1-1.4,4.4-1.4,6.7v29C1.1,71,15.9,71.6,15.9,71.6c2.4,0,4.8-0.5,7-1.6    c0.6,8.5,7.7,15.1,16.3,14.9c4.1-0.1,7.2-1.4,12.1-4.9l13-7.9c8.8-4.9,13.2-8.3,13.2-16.2C77.4,50.6,74.8,45.6,70.4,42.5z     M62.8,52.3c0,0,2.3,1.2,2.6,3.1c0.2,1.6-0.1,3-2.6,4.2L41.1,72.1l0,0c-1,0.6-2.3,0.9-3.5,0.8c-1.3-0.1-2.4-1.2-2.5-2.5v-2    L35,62.6l20.2-11.8l-11.3-6.8L18.6,58.5c-2.2,1.3-2.9,1.1-2.9,1.1c-2,0-3.6-1.5-3.7-3.5l0,0V28.8c0.1-1,1.4-3.3,3.4-3.3    c1.3,0,1.4,0.2,3.8,1.6l4.1,2.3v23.4L35,46.2V14.4c0-1.1,1.6-2.2,2.5-2.4c1.1-0.1,2.1,0.2,3,0.7l22.6,12.8c0,0,2.3,1.4,2.3,3.4    c-0.1,1.3-0.7,2.5-1.7,3.2l-5.9,3.7L37.5,24v13.4L62.8,52.3z"></path>
	</g>
</g>
</svg>
