<?xml version="1.0" encoding="UTF-8"?>
<svg xmlns="http://www.w3.org/2000/svg" width="172" height="134" viewBox="0 0 172 134" fill="none">
  <path d="M7.526 82.424C5.936 82.424 4.62867 81.9647 3.604 81.046C2.61467 80.092 2.12 78.926 2.12 77.548C2.12 76.1347 2.61467 74.951 3.604 73.997C4.62867 73.043 5.936 72.566 7.526 72.566C9.08067 72.566 10.3527 73.043 11.342 73.997C12.3667 74.951 12.879 76.1347 12.879 77.548C12.879 78.926 12.3667 80.092 11.342 81.046C10.3527 81.9647 9.08067 82.424 7.526 82.424ZM60.379 44.794V82H51.316V59.687L42.995 82H35.681L27.307 59.634V82H18.244V44.794H28.95L39.391 70.552L49.726 44.794H60.379ZM98.8024 44.794L85.9234 69.704V82H76.8604V69.704L63.9814 44.794H74.2634L81.4714 60.376L88.6264 44.794H98.8024ZM106.694 82.424C105.104 82.424 103.797 81.9647 102.772 81.046C101.783 80.092 101.288 78.926 101.288 77.548C101.288 76.1347 101.783 74.951 102.772 73.997C103.797 73.043 105.104 72.566 106.694 72.566C108.249 72.566 109.521 73.043 110.51 73.997C111.535 74.951 112.047 76.1347 112.047 77.548C112.047 78.926 111.535 80.092 110.51 81.046C109.521 81.9647 108.249 82.424 106.694 82.424ZM126.475 44.794V82H117.412V44.794H126.475ZM146.982 44.794C150.904 44.794 154.331 45.5713 157.264 47.126C160.197 48.6807 162.458 50.8713 164.048 53.698C165.673 56.4893 166.486 59.7223 166.486 63.397C166.486 67.0363 165.673 70.2693 164.048 73.096C162.458 75.9227 160.179 78.1133 157.211 79.668C154.278 81.2227 150.869 82 146.982 82H133.043V44.794H146.982ZM146.399 74.156C149.826 74.156 152.494 73.2197 154.402 71.347C156.31 69.4743 157.264 66.8243 157.264 63.397C157.264 59.9697 156.31 57.302 154.402 55.394C152.494 53.486 149.826 52.532 146.399 52.532H142.106V74.156H146.399Z" fill="#FF0000"></path>
</svg>
