<?xml version="1.0" encoding="UTF-8"?>
<svg xmlns="http://www.w3.org/2000/svg" width="172" height="134" viewBox="0 0 172 134" fill="none">
  <path d="M137.913 27.0424C134.891 27.8224 131.269 28.8532 130.698 29.1039C129.723 29.5358 128.943 30.2322 128.595 30.9983C128.33 31.5695 128.302 31.9316 128.26 35.205L128.218 38.7849L127.494 38.9939C127.09 39.1053 126.018 39.3978 125.098 39.6346C123.148 40.15 122.312 40.554 121.616 41.2644C120.85 42.0584 120.683 42.8523 120.738 45.4571C120.78 47.4212 120.808 47.7137 121.114 48.3127C121.477 49.0509 122.257 49.7056 123.065 49.9564C123.343 50.0399 124.611 50.1374 125.906 50.1792L128.232 50.2628V59.8184C128.232 69.5969 128.316 71.5749 128.79 73.7758C129.89 78.86 133.01 81.9942 138.276 83.2896C140.504 83.8328 141.995 83.9861 145.017 84C147.943 84 149.461 83.8328 150.464 83.3871C151.272 83.0249 152.149 82.1892 152.581 81.3673C152.943 80.6848 152.957 80.5594 152.999 78.0939C153.055 75.1269 152.943 74.6533 151.982 73.6922C151.216 72.9121 150.45 72.6893 148.291 72.5918C144.558 72.4385 142.97 71.3102 142.58 68.5383C142.51 67.9811 142.44 63.8162 142.44 58.8991V50.2489L146.591 50.1932C150.547 50.1514 150.756 50.1374 151.439 49.831C152.316 49.427 152.776 48.9674 153.194 48.062C153.487 47.4212 153.514 47.1287 153.556 44.7189C153.598 42.9638 153.542 41.7937 153.431 41.2504C153.194 40.1361 152.567 39.2446 151.704 38.7989C151.021 38.4506 150.979 38.4506 146.759 38.381L142.51 38.3113L142.44 33.8539C142.357 29.1457 142.343 29.0064 141.66 28.101C141.131 27.4185 140.309 27.0563 139.167 27.0145C138.638 26.9867 138.067 27.0006 137.913 27.0424Z" fill="black"></path>
  <path d="M56.0782 37.3502C52.7351 37.8098 49.0856 38.9799 45.854 40.6515C44.3078 41.4454 44.1824 41.4872 44.0432 41.2504C43.1935 39.8296 42.5388 39.0774 41.8144 38.7292C41.0622 38.367 41.0065 38.3531 38.7082 38.4088C36.3959 38.4506 36.3541 38.4506 35.6158 38.8824C35.0308 39.2028 34.7522 39.4814 34.4318 40.0664L34 40.8186V60.5985V80.3783L34.3064 80.9494C34.4736 81.2559 34.8218 81.7156 35.1004 81.9384C35.9641 82.7045 36.2287 82.7463 41.104 82.7463H45.5615L46.2579 82.3842C47.1076 81.9245 47.3444 81.6877 47.7484 80.7962L48.0688 80.0997L48.1106 65.5156L48.1384 50.9453L48.7374 50.5971C51.7183 48.8699 56.5797 48.1594 58.6273 49.1624C59.6302 49.6499 60.3267 50.4578 60.7167 51.614C61.0232 52.5194 61.0232 52.5472 61.0928 66.4489L61.1625 80.3783L61.4689 80.9494C61.6361 81.2559 61.9843 81.7156 62.2629 81.9384C63.1265 82.7045 63.4051 82.7463 68.1969 82.7463H72.5846L73.4204 82.3285C74.4094 81.827 74.9387 81.0887 75.1616 79.8629C75.273 79.3197 75.3009 74.2494 75.2591 64.1923C75.2173 51.015 75.1895 49.1763 74.9805 48.048C73.9497 42.4205 70.9828 39.1331 65.7871 37.8238C64.9234 37.6148 63.6698 37.3641 62.9733 37.2805C61.2878 37.0716 57.8751 37.1134 56.0782 37.3502Z" fill="black"></path>
  <path d="M96.0834 37.3363C91.1524 38.0049 87.67 39.6207 84.8284 42.5877C82.0982 45.4432 80.5102 49.1206 79.6605 54.5392C79.2984 56.8793 79.2984 64.1923 79.6745 66.5882C81.0953 75.7816 85.3995 81.1027 93.0607 83.0946C95.7769 83.805 97.4345 83.9861 101.209 83.9861C105.904 83.9861 109.121 83.5821 113.453 82.4538C115.794 81.8409 116.629 81.4509 117.409 80.5873C118.343 79.5565 118.524 78.8182 118.454 76.2413C118.398 73.8872 118.273 73.4275 117.354 72.5221C116.156 71.3242 114.693 71.1292 111.865 71.7839C108.69 72.5361 106.489 72.7868 103.16 72.7868C96.4456 72.7868 93.8268 71.2685 93.3671 67.0896C93.2836 66.3374 93.2557 65.627 93.3114 65.5017C93.395 65.2788 94.2447 65.2649 104.943 65.2649C117.59 65.2649 117.34 65.2788 118.357 64.443C118.635 64.2062 119.011 63.7187 119.192 63.3565C119.499 62.7297 119.527 62.5068 119.568 59.6234C119.708 51.1404 118.05 45.5547 114.317 41.8633C112.019 39.565 109.149 38.1999 105.11 37.4756C103.299 37.1552 98.0614 37.0716 96.0834 37.3363ZM101.627 47.867C103.786 48.2152 105.263 49.3992 105.834 51.2379C106.099 52.0876 106.154 52.5473 106.154 54.1909C106.154 55.2635 106.099 56.2525 106.057 56.3779C105.959 56.6147 105.528 56.6286 99.705 56.6286C96.2645 56.6286 93.4229 56.6007 93.395 56.5729C93.2696 56.4475 93.5482 53.6895 93.7711 52.8398C94.5094 49.9424 96.1948 48.3266 98.9529 47.853C99.914 47.6998 100.61 47.6998 101.627 47.867Z" fill="black"></path>
  <circle cx="19.5" cy="73.5" r="8.5" fill="#FF9010"></circle>
</svg>
