<?xml version="1.0" encoding="UTF-8"?>
<svg xmlns="http://www.w3.org/2000/svg" width="52" height="60" viewBox="0 0 52 60" fill="none">
  <path d="M25.7868 60C40.1868 60.117 52.0088 48.8 51.9998 34.878C51.9998 21.146 26.4248 1.05998 25.3358 0.210977C25.1687 0.0808454 24.9646 0.00714279 24.7528 0.000493123C24.5411 -0.00615655 24.3328 0.0545903 24.1578 0.173977C17.4998 4.71298 14.3858 8.92798 14.6368 13.061C14.6876 13.6842 14.7804 14.3033 14.9148 14.914C15.3121 16.0969 15.2544 17.3854 14.7528 18.528C14.2358 19.496 12.6908 21.262 10.5708 21.007C9.95723 20.9007 9.37395 20.6628 8.86108 20.3096C8.34821 19.9564 7.91792 19.4963 7.59981 18.961C7.51607 18.8304 7.40349 18.7207 7.27072 18.6405C7.13795 18.5603 6.98854 18.5115 6.83399 18.4981C6.67943 18.4847 6.52386 18.5069 6.37924 18.5631C6.23462 18.6192 6.10482 18.7078 5.99981 18.822C2.92054 22.3637 0.93392 26.7222 0.280441 31.3696C-0.373038 36.0171 0.334641 40.7544 2.31781 45.008C4.35603 49.5125 7.65935 53.3276 11.8259 55.9892C15.9925 58.6508 20.8428 60.0443 25.7868 60ZM6.71981 21.082C7.65849 22.1295 8.94054 22.8073 10.3348 22.993C11.596 23.0705 12.8524 22.7787 13.9503 22.1533C15.0482 21.528 15.9401 20.5962 16.5168 19.472C17.2514 17.9268 17.3799 16.1623 16.8768 14.527C16.7612 14.0035 16.6797 13.473 16.6328 12.939C16.4388 9.73198 19.1448 6.13898 24.6788 2.24598C28.4928 5.32098 49.9998 23.19 49.9998 34.878C49.9998 47.627 39.2328 58 25.9908 58C21.3943 58.0888 16.8729 56.8259 12.9877 54.368C9.10246 51.9101 6.02452 48.3655 4.13581 44.174C2.37994 40.4646 1.69164 36.3395 2.14803 32.261C2.60442 28.1824 4.18747 24.3115 6.71981 21.082Z" fill="white"></path>
  <path d="M21 36C21.7911 36 22.5645 35.7654 23.2223 35.3259C23.8801 34.8864 24.3928 34.2616 24.6955 33.5307C24.9983 32.7998 25.0775 31.9956 24.9231 31.2196C24.7688 30.4437 24.3878 29.731 23.8284 29.1716C23.269 28.6122 22.5563 28.2312 21.7804 28.0769C21.0044 27.9225 20.2002 28.0017 19.4693 28.3045C18.7384 28.6072 18.1136 29.1199 17.6741 29.7777C17.2346 30.4355 17 31.2089 17 32C17 33.0609 17.4214 34.0783 18.1716 34.8284C18.9217 35.5786 19.9391 36 21 36ZM21 30C21.3956 30 21.7822 30.1173 22.1111 30.3371C22.44 30.5568 22.6964 30.8692 22.8478 31.2346C22.9991 31.6001 23.0387 32.0022 22.9616 32.3902C22.8844 32.7781 22.6939 33.1345 22.4142 33.4142C22.1345 33.6939 21.7781 33.8844 21.3902 33.9616C21.0022 34.0387 20.6001 33.9991 20.2346 33.8478C19.8692 33.6964 19.5568 33.44 19.3371 33.1111C19.1173 32.7822 19 32.3956 19 32C19 31.4696 19.2107 30.9609 19.5858 30.5858C19.9609 30.2107 20.4696 30 21 30ZM33 40C32.2089 40 31.4355 40.2346 30.7777 40.6741C30.1199 41.1136 29.6072 41.7384 29.3045 42.4693C29.0017 43.2002 28.9225 44.0044 29.0769 44.7804C29.2312 45.5563 29.6122 46.269 30.1716 46.8284C30.731 47.3878 31.4437 47.7688 32.2196 47.9231C32.9956 48.0775 33.7998 47.9983 34.5307 47.6955C35.2616 47.3928 35.8864 46.8801 36.3259 46.2223C36.7654 45.5645 37 44.7911 37 44C37 42.9391 36.5786 41.9217 35.8284 41.1716C35.0783 40.4214 34.0609 40 33 40ZM33 46C32.6044 46 32.2178 45.8827 31.8889 45.6629C31.56 45.4432 31.3036 45.1308 31.1522 44.7654C31.0009 44.3999 30.9613 43.9978 31.0384 43.6098C31.1156 43.2219 31.3061 42.8655 31.5858 42.5858C31.8655 42.3061 32.2219 42.1156 32.6098 42.0384C32.9978 41.9613 33.3999 42.0009 33.7654 42.1522C34.1308 42.3036 34.4432 42.56 34.6629 42.8889C34.8827 43.2178 35 43.6044 35 44C35 44.5304 34.7893 45.0391 34.4142 45.4142C34.0391 45.7893 33.5304 46 33 46ZM17.882 44C17.8812 44.6165 18.0637 45.2193 18.4063 45.7319C18.7488 46.2445 19.236 46.6437 19.8059 46.8788C20.3758 47.1139 21.0027 47.1743 21.6071 47.0524C22.2114 46.9305 22.7658 46.6317 23.2 46.194L35.121 34.122C35.6774 33.5561 35.9892 32.7942 35.9892 32.0005C35.9892 31.2068 35.6774 30.4449 35.121 29.879C34.5481 29.3379 33.79 29.0365 33.002 29.0365C32.214 29.0365 31.4559 29.3379 30.883 29.879L18.806 41.8C18.514 42.0873 18.282 42.4297 18.1234 42.8073C17.9648 43.185 17.8827 43.5904 17.882 44ZM20.211 43.22L32.294 31.292C32.3854 31.1921 32.4962 31.1117 32.6196 31.0559C32.743 31.0001 32.8765 30.9699 33.0119 30.9672C33.1473 30.9645 33.2819 30.9894 33.4074 31.0402C33.5329 31.0911 33.6468 31.167 33.7422 31.2632C33.8375 31.3594 33.9123 31.474 33.962 31.6C34.0117 31.726 34.0353 31.8607 34.0314 31.9961C34.0274 32.1315 33.996 32.2647 33.9391 32.3876C33.8821 32.5105 33.8008 32.6205 33.7 32.711L21.78 44.788C21.677 44.891 21.5548 44.9728 21.4203 45.0285C21.2857 45.0843 21.1415 45.1131 20.9959 45.1131C20.8502 45.1131 20.706 45.0845 20.5714 45.0288C20.4368 44.9731 20.3145 44.8915 20.2115 44.7885C20.1085 44.6855 20.0267 44.5633 19.971 44.4288C19.9152 44.2942 19.8864 44.15 19.8864 44.0044C19.8864 43.8587 19.915 43.7145 19.9707 43.5799C20.0264 43.4453 20.108 43.323 20.211 43.22Z" fill="white"></path>
</svg>
