<?xml version="1.0" encoding="UTF-8"?>
<svg xmlns="http://www.w3.org/2000/svg" width="21" height="21" viewBox="0 0 21 21" fill="none">
  <path d="M18.5 0.5H2.5C1.39543 0.5 0.5 1.39543 0.5 2.5V4.5C0.5 5.60457 1.39543 6.5 2.5 6.5H18.5C19.6046 6.5 20.5 5.60457 20.5 4.5V2.5C20.5 1.39543 19.6046 0.5 18.5 0.5Z" stroke="white"></path>
  <path d="M4.5 5C5.32843 5 6 4.32843 6 3.5C6 2.67157 5.32843 2 4.5 2C3.67157 2 3 2.67157 3 3.5C3 4.32843 3.67157 5 4.5 5Z" fill="white"></path>
  <path d="M14.5 2.5V4.5M10.5 6.5V9.5M16.5 2.5V4.5M18.5 2.5V4.5" stroke="white" stroke-linecap="round"></path>
  <path d="M18.5 9.5H2.5C1.39543 9.5 0.5 10.3954 0.5 11.5V13.5C0.5 14.6046 1.39543 15.5 2.5 15.5H18.5C19.6046 15.5 20.5 14.6046 20.5 13.5V11.5C20.5 10.3954 19.6046 9.5 18.5 9.5Z" stroke="white"></path>
  <path d="M4.5 14C5.32843 14 6 13.3284 6 12.5C6 11.6716 5.32843 11 4.5 11C3.67157 11 3 11.6716 3 12.5C3 13.3284 3.67157 14 4.5 14Z" fill="white"></path>
  <path d="M14.5 11.5V13.5M16.5 11.5V13.5M18.5 11.5V13.5M10.5 15.5V18.5M11.5 19.5H15.5M5.5 19.5H9.5" stroke="white" stroke-linecap="round"></path>
  <path d="M11 18H10C9.44772 18 9 18.4477 9 19V20C9 20.5523 9.44772 21 10 21H11C11.5523 21 12 20.5523 12 20V19C12 18.4477 11.5523 18 11 18Z" fill="#E2E2E2"></path>
  <path d="M11.5 19.5C11.5 18.9477 11.0523 18.5 10.5 18.5C9.94772 18.5 9.5 18.9477 9.5 19.5C9.5 20.0523 9.94772 20.5 10.5 20.5C11.0523 20.5 11.5 20.0523 11.5 19.5Z" stroke="white"></path>
</svg>
