<?xml version="1.0" encoding="UTF-8"?>
<svg xmlns="http://www.w3.org/2000/svg" width="80" height="80" viewBox="0 0 80 80" fill="none">
  <path fill-rule="evenodd" clip-rule="evenodd" d="M79.8769 12.08C79.8527 10.8926 79.3613 9.76258 78.5093 8.93512C77.6573 8.10766 76.5135 7.64949 75.3258 7.66C74.3733 7.66599 73.446 7.96638 72.6709 8.52C70.0547 10.2171 66.9886 11.0882 63.8709 11.02C59.4989 11 53.7908 9.38 52.0938 4.78C51.6307 3.40804 50.7551 2.21259 49.5868 1.35703C48.4186 0.50146 47.0146 0.027527 45.5669 0H34.3669C32.9166 0.0270468 31.5098 0.50049 30.3383 1.35583C29.1668 2.21118 28.2874 3.40684 27.8199 4.78C26.1199 9.38 20.4138 11.02 16.0418 11.02C12.9246 11.0848 9.85945 10.214 7.24186 8.52C6.46716 7.96628 5.54009 7.66587 4.58787 7.66C3.40008 7.64923 2.25592 8.10727 1.40373 8.93475C0.551529 9.76224 0.0600385 10.8924 0.0358671 12.08C-0.842133 52.02 12.4718 74.86 39.5998 79.98C39.7187 79.9966 39.8388 80.0033 39.9588 80C40.0858 80.0028 40.2129 79.9961 40.3388 79.98C46.9405 78.835 53.2057 76.2393 58.6828 72.38C59.7491 72.5808 60.8318 72.6812 61.9168 72.68C66.6839 72.6683 71.252 70.7671 74.6195 67.3929C77.9871 64.0188 79.8795 59.4471 79.8819 54.68C79.8898 50.968 78.7385 47.3462 76.5888 44.32C79.0608 35.24 80.1569 24.4933 79.8769 12.08ZM63.1899 68.6C62.7663 68.6571 62.3392 68.6838 61.9118 68.68C60.4816 68.6868 59.0595 68.464 57.6999 68.02C55.8696 67.4452 54.179 66.4958 52.7356 65.2321C51.2922 63.9684 50.1276 62.4182 49.3158 60.68C48.704 59.4478 48.2987 58.1235 48.1159 56.76C47.9956 56.0732 47.9353 55.3772 47.9359 54.68C47.9389 51.701 48.8903 48.8003 50.6523 46.3983C52.4143 43.9962 54.8953 42.2176 57.7359 41.32H57.7558C59.0985 40.8938 60.4991 40.6779 61.9079 40.68H62.0879C63.9827 40.7058 65.8524 41.1182 67.5822 41.892C69.312 42.6658 70.8656 43.7846 72.1479 45.18C73.3578 46.4692 74.3009 47.985 74.9229 49.64C75.5583 51.2442 75.8833 52.9545 75.8808 54.68C75.8819 58.1648 74.5809 61.5243 72.2331 64.0995C69.8852 66.6747 66.6599 68.2798 63.1899 68.6ZM73.3299 40.8C70.4141 38.3854 66.8082 36.957 63.0299 36.72C63.6325 33.901 64.0722 31.0496 64.3468 28.18C64.3802 27.9102 64.3546 27.6364 64.2719 27.3774C64.1893 27.1185 64.0514 26.8805 63.8678 26.68C63.6937 26.4707 63.4777 26.3002 63.2336 26.1797C62.9895 26.0591 62.7229 25.9911 62.4508 25.98C53.8508 25.62 46.2218 22.04 41.5108 16.14C41.319 15.9144 41.0803 15.7332 40.8115 15.6089C40.5427 15.4846 40.25 15.4203 39.9538 15.4203C39.6577 15.4203 39.3651 15.4846 39.0962 15.6089C38.8274 15.7332 38.5888 15.9144 38.3969 16.14C33.6859 22.04 26.0609 25.62 17.4579 25.98C16.9274 26.0011 16.4271 26.232 16.0669 26.622C15.7068 27.012 15.5162 27.5291 15.5373 28.0595C15.5584 28.5899 15.7894 29.0903 16.1794 29.4504C16.5693 29.8106 17.0864 30.0011 17.6169 29.98C26.4999 29.62 34.5048 26.16 39.9538 20.42C45.3388 25.8789 52.5097 29.2159 60.1538 29.82C59.8648 32.2065 59.452 34.5764 58.9168 36.92C54.728 37.6399 50.9283 39.817 48.1889 43.0667C45.4496 46.3165 43.9467 50.4297 43.9458 54.68C43.9447 56.1422 44.119 57.5993 44.4649 59.02C44.7798 60.2959 45.2419 61.5308 45.8418 62.7C47.5666 66.1711 50.3677 68.9915 53.8269 70.74C49.5517 73.3001 44.853 75.0747 39.9529 75.98C15.3009 71.14 3.20387 49.68 4.02287 12.18C4.02907 12.0786 4.06302 11.9808 4.12095 11.8974C4.17888 11.814 4.25859 11.748 4.35142 11.7068C4.44425 11.6655 4.54662 11.6505 4.64738 11.6634C4.74814 11.6763 4.84347 11.7167 4.92289 11.78C8.21129 13.9695 12.091 15.1002 16.0409 15.02C23.4869 15.02 29.5748 11.54 31.5708 6.16C31.7593 5.55696 32.1284 5.02637 32.6283 4.64003C33.1282 4.25369 33.7348 4.03027 34.3659 4H45.5658C46.1934 4.03375 46.7957 4.25883 47.2916 4.64497C47.7875 5.03111 48.1533 5.55981 48.3399 6.16C49.4208 8.92099 51.4526 11.2049 54.0689 12.6C57.071 14.2413 60.4478 15.0752 63.8689 15.02C67.819 15.1001 71.699 13.9695 74.9878 11.78C75.0837 11.7023 75.2035 11.6599 75.3269 11.66C75.4695 11.6564 75.6079 11.7089 75.7124 11.8061C75.8169 11.9032 75.8791 12.0375 75.8858 12.18C76.2423 21.7896 75.3835 31.4057 73.3299 40.8ZM45.8429 62.7C44.1138 63.5327 42.3 64.1764 40.4328 64.62C40.1185 64.7 39.7892 64.7 39.4748 64.62C27.8178 61.78 20.4918 52.96 17.0578 37.66C17.0014 37.4044 16.9958 37.1401 17.0415 36.8824C17.0871 36.6246 17.1831 36.3783 17.324 36.1577C17.4648 35.937 17.6477 35.7462 17.8622 35.5962C18.0768 35.4462 18.3188 35.34 18.5744 35.2835C18.83 35.227 19.0942 35.2215 19.352 35.2671C19.6097 35.3128 19.856 35.4087 20.0767 35.5496C20.2974 35.6904 20.4882 35.8733 20.6382 36.0878C20.7882 36.3024 20.8944 36.5444 20.9508 36.8C25.3218 56.28 35.8618 59.6 39.9508 60.62C41.5081 60.2507 43.0209 59.7143 44.4629 59.02C44.7788 60.296 45.2419 61.5309 45.8429 62.7ZM59.6579 62.471C59.1282 62.4703 58.6204 62.2596 58.2459 61.885L52.5179 56.146C52.1705 55.7662 51.9829 55.2671 51.9942 54.7525C52.0054 54.238 52.2147 53.7475 52.5783 53.3833C52.9419 53.019 53.4319 52.809 53.9464 52.7968C54.461 52.7847 54.9604 52.9713 55.3409 53.318L59.6579 57.643L68.4869 48.795C68.6693 48.5955 68.8902 48.4351 69.1364 48.3234C69.3825 48.2118 69.6487 48.1511 69.919 48.1452C70.1892 48.1393 70.4579 48.1882 70.7087 48.2891C70.9595 48.3899 71.1872 48.5405 71.3782 48.7318C71.5692 48.9231 71.7194 49.1511 71.8197 49.4021C71.9201 49.6531 71.9686 49.9218 71.9622 50.192C71.9558 50.4622 71.8947 50.7284 71.7826 50.9743C71.6705 51.2203 71.5096 51.4409 71.3099 51.623L61.0689 61.885C60.8835 62.0709 60.6633 62.2183 60.4208 62.3189C60.1783 62.4195 59.9184 62.4711 59.6559 62.471H59.6579Z" fill="white"></path>
</svg>
