<svg class="svg-icon" version="1.1" xmlns="http://www.w3.org/2000/svg" xmlns:xlink="http://www.w3.org/1999/xlink" x="0px" y="0px" width="64" height="64" viewBox="0 0 64 64" style="enable-background:new 0 0 64 64;" xml:space="preserve">
<polygon class="prime-l stroke" points="50,36.4 46,34.1 42,36.4 35.8,32.9 33,34.5 28.2,31.7 21,35.9 49,57.8 59,52" stroke="#009aff" fill="#009aff" stroke-width="2px"></polygon>
<polygon class="prime stroke" points="36,44.5 21,35.9 21,47.4 36,56.1 36,60.7 40,63 49,57.8 40,42.2 36,39.9" stroke="#1062fe" fill="#1062fe" stroke-width="2px"></polygon>
<polyline class="outline stroke" points="42.7,16.8 33,22.4 33,33.4" stroke="#2a2e36" fill="none" stroke-width="2px"></polyline>
<polyline class="outline stroke" points="32.8,22.3 18,13.7 18,9.1 14.2,6.9" stroke="#2a2e36" fill="none" stroke-width="2px"></polyline>
<line class="outline stroke" x1="27.7" y1="8.1" x2="18.3" y2="13.5" stroke="#2a2e36" fill="none" stroke-width="2px"></line>
<line class="outline stroke" x1="18.3" y1="8.9" x2="27.7" y2="3.5" stroke="#2a2e36" fill="none" stroke-width="2px"></line>
<polygon class="outline stroke" points="33,33.9 43,28.1 43,16.6 28,7.9 28,3.3 24,1 5,12 14,27.6 18,29.9 18,25.2" stroke="#2a2e36" fill="none" stroke-width="2px"></polygon>
<line class="outline stroke" x1="18.1" y1="29.9" x2="21.8" y2="27.7" stroke="#2a2e36" fill="none" stroke-width="2px"></line>
</svg>