<?xml version="1.0" encoding="UTF-8"?>
<svg xmlns="http://www.w3.org/2000/svg" width="172" height="134" viewBox="0 0 172 134" fill="none">
  <path d="M169.454 43.9949C169.454 31.1653 159.032 20 146.221 20H43.693C39.9352 20.0137 36.2338 20.9171 32.891 22.6365C29.5483 24.3558 26.6588 26.8424 24.4584 29.8932C22.258 32.9441 20.8091 36.4727 20.2298 40.1912C19.6506 43.9097 19.9575 47.7127 21.1255 51.2898C16.6146 52.2213 12.4655 54.4301 9.17135 57.6538C4.54631 62.2294 2 68.6273 2 75.6683C2 82.7094 4.63081 89.2088 9.40232 93.79C12.5908 96.8422 18.2074 100.481 26.8659 100.481H43.3606C47.7098 100.483 51.9772 99.2972 55.7034 97.051C56.3199 102.836 59.0627 108.184 63.3983 112.056C67.7338 115.928 73.3523 118.046 79.161 117.999C87.9253 118.036 96.3925 114.82 102.928 108.972C106.588 105.684 109.688 101.819 112.105 97.5306C115.177 98.9897 118.536 99.7452 121.936 99.7422H146.948C153.058 99.7302 158.915 97.2941 163.235 92.9671C167.556 88.6401 169.988 82.7749 170 76.6556L169.454 43.9949ZM26.8659 81.8631C23.0577 81.8631 20.8832 79.9561 20.8832 75.9617C20.8832 71.877 23.0577 69.8798 26.8659 69.8798C30.6741 69.8798 32.7641 71.8826 32.7641 75.9673C32.7641 79.9618 30.6741 81.8631 26.8659 81.8631ZM68.9195 81.8631C68.1675 81.8641 67.4252 81.6928 66.7495 81.3622C66.0739 81.0317 65.4826 80.5507 65.0211 79.9561C62.2044 76.052 56.1372 67.4312 56.1372 67.4312C56.1372 67.4312 50.0644 76.0576 47.2533 79.9561C46.7915 80.5504 46.2002 81.0312 45.5246 81.3617C44.849 81.6922 44.1069 81.8637 43.355 81.8631C42.4416 81.8589 41.5475 81.6001 40.7728 81.1157C39.998 80.6312 39.3733 79.9403 38.9686 79.1203C38.5639 78.3002 38.3952 77.3836 38.4814 76.4729C38.5676 75.5623 38.9053 74.6937 39.4566 73.9645L50.4249 60.1701L39.8228 47.1035C39.1599 46.2476 38.8081 45.1908 38.8257 44.1077C38.8227 43.463 38.9473 42.8241 39.1923 42.228C39.4372 41.6318 39.7977 41.0901 40.2529 40.6342C40.7081 40.1784 41.2489 39.8174 41.8442 39.572C42.4395 39.3267 43.0774 39.2019 43.7211 39.2049C44.473 39.2048 45.2149 39.3765 45.8905 39.7069C46.5661 40.0374 47.1574 40.5179 47.6195 41.1119L56.1372 52.8187L64.655 41.1119C65.117 40.5179 65.7084 40.0374 66.3839 39.7069C67.0595 39.3765 67.8014 39.2048 68.5533 39.2049C69.197 39.2019 69.8349 39.3267 70.4302 39.572C71.0255 39.8174 71.5664 40.1784 72.0215 40.6342C72.4767 41.0901 72.8372 41.6318 73.0822 42.228C73.3271 42.8241 73.4517 43.463 73.4487 44.1077C73.4663 45.1908 73.1146 46.2476 72.4516 47.1035L61.8495 60.1701L72.8122 73.9701C73.3616 74.699 73.6979 75.5665 73.7835 76.4758C73.869 77.385 73.7005 78.3002 73.2966 79.119C72.8928 79.9379 72.2696 80.6281 71.4966 81.1127C70.7236 81.5973 69.8314 81.8571 68.9195 81.8631ZM114.776 46.009L97.9147 84.1311C93.9262 93.0283 88.2196 99.3642 79.1554 99.3642C78.5468 99.3857 77.9401 99.2842 77.3715 99.0657C76.8029 98.8473 76.2841 98.5164 75.8459 98.0928C75.4078 97.6692 75.0593 97.1616 74.8213 96.6002C74.5833 96.0388 74.4607 95.4352 74.4607 94.8253C74.4607 94.2154 74.5833 93.6117 74.8213 93.0503C75.0593 92.4889 75.4078 91.9813 75.8459 91.5577C76.2841 91.1341 76.8029 90.8032 77.3715 90.5848C77.9401 90.3664 78.5468 90.2649 79.1554 90.2864C84.9522 90.2864 87.6731 85.6544 90.6645 78.2128L76.7049 46.009C76.4634 45.4025 76.3409 44.755 76.3443 44.1021C76.3413 43.4574 76.4659 42.8185 76.7109 42.2223C76.9558 41.6261 77.3163 41.0845 77.7715 40.6286C78.2267 40.1727 78.7675 39.8117 79.3628 39.5664C79.9581 39.3211 80.596 39.1963 81.2398 39.1993C82.216 39.1902 83.1715 39.4812 83.9774 40.033C84.7833 40.5849 85.4008 41.371 85.7465 42.2854L95.7177 67.5215L105.689 42.2854C106.035 41.3715 106.653 40.5858 107.459 40.034C108.264 39.4823 109.22 39.191 110.196 39.1993C110.839 39.1963 111.477 39.3211 112.072 39.5664C112.668 39.8117 113.209 40.1727 113.664 40.6286C114.119 41.0845 114.479 41.6261 114.724 42.2223C114.969 42.8185 115.094 43.4574 115.091 44.1021C115.109 44.7521 115.002 45.3995 114.776 46.009ZM146.948 81.1353H121.936C120.834 81.1235 119.78 80.6799 119.001 79.8995C118.222 79.119 117.779 78.0639 117.767 76.9603C117.758 75.9609 118.112 74.9924 118.764 74.2353L129.563 59.747L136.419 50.5733L138.244 48.1247H122.933C122.397 48.1247 121.867 48.0191 121.372 47.8138C120.877 47.6085 120.427 47.3076 120.049 46.9283C119.67 46.549 119.37 46.0987 119.165 45.6032C118.96 45.1076 118.854 44.5764 118.854 44.04C118.854 43.5036 118.96 42.9724 119.165 42.4768C119.37 41.9813 119.67 41.531 120.049 41.1517C120.427 40.7724 120.877 40.4715 121.372 40.2662C121.867 40.0609 122.397 39.9553 122.933 39.9553H146.221C147.051 39.955 147.864 40.1911 148.565 40.6359C149.266 41.0807 149.827 41.716 150.181 42.4676C150.535 43.2193 150.669 44.0563 150.566 44.8811C150.464 45.7059 150.129 46.4845 149.601 47.1261L130.453 72.7853H146.948C148.054 72.7853 149.115 73.2255 149.898 74.009C150.68 74.7925 151.12 75.8551 151.12 76.9631C151.12 78.0711 150.68 79.1338 149.898 79.9173C149.115 80.7008 148.054 81.1409 146.948 81.1409V81.1353Z" fill="#491D55"></path>
</svg>
